<svg viewBox="0 0 330 200" xmlns="http://www.w3.org/2000/svg"><g><g><g><g><g><line x1="59.98000144958496" y1="178.61999988555908" x2="54.98000144958496" y2="178.61999988555908" style="visibility: inherit;" fill="rgb(0, 0, 0)" stroke="rgb(204, 204, 204)" stroke-width="1px"></line><line x1="59.98000144958496" y1="162.381818077781" x2="54.98000144958496" y2="162.381818077781" style="visibility: inherit;" fill="rgb(0, 0, 0)" stroke="rgb(204, 204, 204)" stroke-width="1px"></line><line x1="59.98000144958496" y1="146.1436362700029" x2="54.98000144958496" y2="146.1436362700029" style="visibility: inherit;" fill="rgb(0, 0, 0)" stroke="rgb(204, 204, 204)" stroke-width="1px"></line><line x1="59.98000144958496" y1="129.90545446222478" x2="54.98000144958496" y2="129.90545446222478" style="visibility: inherit;" fill="rgb(0, 0, 0)" stroke="rgb(204, 204, 204)" stroke-width="1px"></line><line x1="59.98000144958496" y1="113.66727265444669" x2="54.98000144958496" y2="113.66727265444669" style="visibility: inherit;" fill="rgb(0, 0, 0)" stroke="rgb(204, 204, 204)" stroke-width="1px"></line><line x1="59.98000144958496" y1="97.42909084666859" x2="54.98000144958496" y2="97.42909084666859" style="visibility: inherit;" fill="rgb(0, 0, 0)" stroke="rgb(204, 204, 204)" stroke-width="1px"></line><line x1="59.98000144958496" y1="81.19090903889048" x2="54.98000144958496" y2="81.19090903889048" style="visibility: inherit;" fill="rgb(0, 0, 0)" stroke="rgb(204, 204, 204)" stroke-width="1px"></line><line x1="59.98000144958496" y1="64.95272723111242" x2="54.98000144958496" y2="64.95272723111242" style="visibility: inherit;" fill="rgb(0, 0, 0)" stroke="rgb(204, 204, 204)" stroke-width="1px"></line><line x1="59.98000144958496" y1="48.7145454233343" x2="54.98000144958496" y2="48.7145454233343" style="visibility: inherit;" fill="rgb(0, 0, 0)" stroke="rgb(204, 204, 204)" stroke-width="1px"></line><line x1="59.98000144958496" y1="32.47636361555621" x2="54.98000144958496" y2="32.47636361555621" style="visibility: inherit;" fill="rgb(0, 0, 0)" stroke="rgb(204, 204, 204)" stroke-width="1px"></line><line x1="59.98000144958496" y1="16.23818180777809" x2="54.98000144958496" y2="16.23818180777809" style="visibility: inherit;" fill="rgb(0, 0, 0)" stroke="rgb(204, 204, 204)" stroke-width="1px"></line><line x1="59.98000144958496" y1="0" x2="54.98000144958496" y2="0" style="visibility: inherit;" fill="rgb(0, 0, 0)" stroke="rgb(204, 204, 204)" stroke-width="1px"></line></g><g transform="translate(49.98000144958496, 0)"><text style="text-anchor: end; visibility: hidden; font-family: &quot;Helvetica Neue&quot;, sans-serif; font-size: 12px; font-weight: 200;" x="0" y="178.61999988555908" dx="0em" dy="0.3em" fill="rgb(50, 49, 63)" stroke="none" stroke-width="1px">-0.02</text><text style="text-anchor: end; visibility: inherit; font-family: &quot;Helvetica Neue&quot;, sans-serif; font-size: 12px; font-weight: 200;" x="0" y="162.381818077781" dx="0em" dy="0.3em" fill="rgb(50, 49, 63)" stroke="none" stroke-width="1px">0</text><text style="text-anchor: end; visibility: hidden; font-family: &quot;Helvetica Neue&quot;, sans-serif; font-size: 12px; font-weight: 200;" x="0" y="146.1436362700029" dx="0em" dy="0.3em" fill="rgb(50, 49, 63)" stroke="none" stroke-width="1px">0.02</text><text style="text-anchor: end; visibility: inherit; font-family: &quot;Helvetica Neue&quot;, sans-serif; font-size: 12px; font-weight: 200;" x="0" y="129.90545446222478" dx="0em" dy="0.3em" fill="rgb(50, 49, 63)" stroke="none" stroke-width="1px">0.04</text><text style="text-anchor: end; visibility: hidden; font-family: &quot;Helvetica Neue&quot;, sans-serif; font-size: 12px; font-weight: 200;" x="0" y="113.66727265444669" dx="0em" dy="0.3em" fill="rgb(50, 49, 63)" stroke="none" stroke-width="1px">0.06</text><text style="text-anchor: end; visibility: inherit; font-family: &quot;Helvetica Neue&quot;, sans-serif; font-size: 12px; font-weight: 200;" x="0" y="97.42909084666859" dx="0em" dy="0.3em" fill="rgb(50, 49, 63)" stroke="none" stroke-width="1px">0.08</text><text style="text-anchor: end; visibility: hidden; font-family: &quot;Helvetica Neue&quot;, sans-serif; font-size: 12px; font-weight: 200;" x="0" y="81.19090903889048" dx="0em" dy="0.3em" fill="rgb(50, 49, 63)" stroke="none" stroke-width="1px">0.1</text><text style="text-anchor: end; visibility: inherit; font-family: &quot;Helvetica Neue&quot;, sans-serif; font-size: 12px; font-weight: 200;" x="0" y="64.95272723111242" dx="0em" dy="0.3em" fill="rgb(50, 49, 63)" stroke="none" stroke-width="1px">0.12</text><text style="text-anchor: end; visibility: hidden; font-family: &quot;Helvetica Neue&quot;, sans-serif; font-size: 12px; font-weight: 200;" x="0" y="48.7145454233343" dx="0em" dy="0.3em" fill="rgb(50, 49, 63)" stroke="none" stroke-width="1px">0.14</text><text style="text-anchor: end; visibility: inherit; font-family: &quot;Helvetica Neue&quot;, sans-serif; font-size: 12px; font-weight: 200;" x="0" y="32.47636361555621" dx="0em" dy="0.3em" fill="rgb(50, 49, 63)" stroke="none" stroke-width="1px">0.16</text><text style="text-anchor: end; visibility: hidden; font-family: &quot;Helvetica Neue&quot;, sans-serif; font-size: 12px; font-weight: 200;" x="0" y="16.23818180777809" dx="0em" dy="0.3em" fill="rgb(50, 49, 63)" stroke="none" stroke-width="1px">0.18</text><text style="text-anchor: end; visibility: hidden; font-family: &quot;Helvetica Neue&quot;, sans-serif; font-size: 12px; font-weight: 200;" x="0" y="0" dx="0em" dy="0.3em" fill="rgb(50, 49, 63)" stroke="none" stroke-width="1px">0.2</text></g><line x1="59.98000144958496" y1="0" x2="59.98000144958496" y2="178.61999988555908" fill="rgb(0, 0, 0)" stroke="rgb(204, 204, 204)" stroke-width="1px"></line></g></g><g transform="translate(59, 0)" clip-path="url(#clip_0)"><clipPath id="clip_0"><rect width="270" height="178"></rect></clipPath><g><g><g><line x1="0" y1="0" x2="0" y2="178.61999988555908" fill="rgb(0, 0, 0)" stroke="rgb(60, 60, 60)" stroke-width="1px" opacity="0.25"></line><line x1="22.50166654586792" y1="0" x2="22.50166654586792" y2="178.61999988555908" fill="rgb(0, 0, 0)" stroke="rgb(60, 60, 60)" stroke-width="1px" opacity="0.25"></line><line x1="45.00333309173584" y1="0" x2="45.00333309173584" y2="178.61999988555908" fill="rgb(0, 0, 0)" stroke="rgb(60, 60, 60)" stroke-width="1px" opacity="0.25"></line><line x1="67.50499963760376" y1="0" x2="67.50499963760376" y2="178.61999988555908" fill="rgb(0, 0, 0)" stroke="rgb(60, 60, 60)" stroke-width="1px" opacity="0.25"></line><line x1="90.00666618347168" y1="0" x2="90.00666618347168" y2="178.61999988555908" fill="rgb(0, 0, 0)" stroke="rgb(60, 60, 60)" stroke-width="1px" opacity="0.25"></line><line x1="112.5083327293396" y1="0" x2="112.5083327293396" y2="178.61999988555908" fill="rgb(0, 0, 0)" stroke="rgb(60, 60, 60)" stroke-width="1px" opacity="0.25"></line><line x1="135.00999927520752" y1="0" x2="135.00999927520752" y2="178.61999988555908" fill="rgb(0, 0, 0)" stroke="rgb(60, 60, 60)" stroke-width="1px" opacity="0.25"></line><line x1="157.51166582107544" y1="0" x2="157.51166582107544" y2="178.61999988555908" fill="rgb(0, 0, 0)" stroke="rgb(60, 60, 60)" stroke-width="1px" opacity="0.25"></line><line x1="180.01333236694336" y1="0" x2="180.01333236694336" y2="178.61999988555908" fill="rgb(0, 0, 0)" stroke="rgb(60, 60, 60)" stroke-width="1px" opacity="0.25"></line><line x1="202.51499891281128" y1="0" x2="202.51499891281128" y2="178.61999988555908" fill="rgb(0, 0, 0)" stroke="rgb(60, 60, 60)" stroke-width="1px" opacity="0.25"></line><line x1="225.0166654586792" y1="0" x2="225.0166654586792" y2="178.61999988555908" fill="rgb(0, 0, 0)" stroke="rgb(60, 60, 60)" stroke-width="1px" opacity="0.25"></line><line x1="247.51833200454712" y1="0" x2="247.51833200454712" y2="178.61999988555908" fill="rgb(0, 0, 0)" stroke="rgb(60, 60, 60)" stroke-width="1px" opacity="0.25"></line><line x1="270.01999855041504" y1="0" x2="270.01999855041504" y2="178.61999988555908" fill="rgb(0, 0, 0)" stroke="rgb(60, 60, 60)" stroke-width="1px" opacity="0.25"></line></g><g><line x1="0" y1="178.61999988555908" x2="270.01999855041504" y2="178.61999988555908" fill="rgb(0, 0, 0)" stroke="rgb(60, 60, 60)" stroke-width="1px" opacity="0.25"></line><line x1="0" y1="162.381818077781" x2="270.01999855041504" y2="162.381818077781" fill="rgb(0, 0, 0)" stroke="rgb(60, 60, 60)" stroke-width="1px" opacity="0.25"></line><line x1="0" y1="146.1436362700029" x2="270.01999855041504" y2="146.1436362700029" fill="rgb(0, 0, 0)" stroke="rgb(60, 60, 60)" stroke-width="1px" opacity="0.25"></line><line x1="0" y1="129.90545446222478" x2="270.01999855041504" y2="129.90545446222478" fill="rgb(0, 0, 0)" stroke="rgb(60, 60, 60)" stroke-width="1px" opacity="0.25"></line><line x1="0" y1="113.66727265444669" x2="270.01999855041504" y2="113.66727265444669" fill="rgb(0, 0, 0)" stroke="rgb(60, 60, 60)" stroke-width="1px" opacity="0.25"></line><line x1="0" y1="97.42909084666859" x2="270.01999855041504" y2="97.42909084666859" fill="rgb(0, 0, 0)" stroke="rgb(60, 60, 60)" stroke-width="1px" opacity="0.25"></line><line x1="0" y1="81.19090903889048" x2="270.01999855041504" y2="81.19090903889048" fill="rgb(0, 0, 0)" stroke="rgb(60, 60, 60)" stroke-width="1px" opacity="0.25"></line><line x1="0" y1="64.95272723111242" x2="270.01999855041504" y2="64.95272723111242" fill="rgb(0, 0, 0)" stroke="rgb(60, 60, 60)" stroke-width="1px" opacity="0.25"></line><line x1="0" y1="48.7145454233343" x2="270.01999855041504" y2="48.7145454233343" fill="rgb(0, 0, 0)" stroke="rgb(60, 60, 60)" stroke-width="1px" opacity="0.25"></line><line x1="0" y1="32.47636361555621" x2="270.01999855041504" y2="32.47636361555621" fill="rgb(0, 0, 0)" stroke="rgb(60, 60, 60)" stroke-width="1px" opacity="0.25"></line><line x1="0" y1="16.23818180777809" x2="270.01999855041504" y2="16.23818180777809" fill="rgb(0, 0, 0)" stroke="rgb(60, 60, 60)" stroke-width="1px" opacity="0.25"></line><line x1="0" y1="0" x2="270.01999855041504" y2="0" fill="rgb(0, 0, 0)" stroke="rgb(60, 60, 60)" stroke-width="1px" opacity="0.25"></line></g></g></g><g><g><line x1="0" y1="162.381818077781" x2="270.01999855041504" y2="162.381818077781" fill="rgb(0, 0, 0)" stroke="rgb(153, 153, 153)" stroke-width="1.5px"></line></g></g><g><g><line x1="22.50166654586792" y1="0" x2="22.50166654586792" y2="178.61999988555908" fill="rgb(0, 0, 0)" stroke="rgb(153, 153, 153)" stroke-width="1.5px"></line></g></g><g><g><g><g><g><path style="fill: none;" stroke="rgb(255, 112, 67)" stroke-width="2px" d="M22.50166654586792,22.71026927647125L24.751833200454712,17.983640716556067L27.001999855041504,13.151708032387319L29.252166509628296,16.449764134085513L31.502333164215088,15.381342790657442L33.75249981880188,20.958213139917234L36.00266647338867,26.798725462798586L38.252833127975464,31.812887531949485L40.502999782562256,37.78403675874884L42.75316643714905,42.58019973730947L45.00333309173584,48.9533987591538L47.25349974632263,50.27996809243743L49.503666400909424,54.815627498141225L51.753833055496216,58.53482632459428L54.00399971008301,61.02913272579664L56.2541663646698,63.93324524252671L58.50433301925659,66.80736081770495L60.754499673843384,69.8988021242175L63.004666328430176,73.38080559680635L65.25483298301697,73.3810523362862L67.50499963760376,75.98566302451204L69.75516629219055,78.07891659558257L72.00533294677734,80.11926355966757L74.25549960136414,82.96011379355465L76.50566625595093,82.72758526571576L78.75583291053772,82.14491353398867L81.00599956512451,83.63852908097643L83.2561662197113,83.16852965509715L85.5063328742981,83.33959563304003L87.75649952888489,84.0589917903917L90.00666618347168,84.82582253244145L92.25683283805847,86.30615387648312L94.50699949264526,86.22318590172681L96.75716614723206,89.30643044183293L99.00733280181885,90.22848878838262L101.25749945640564,93.86026516902287L103.50766611099243,94.1218283747609L105.75783276557922,94.28187558295457L108.00799942016602,94.08276856530185L110.25816607475281,96.01933590946605L112.5083327293396,95.38713615149618L114.75849938392639,95.19104154752462L117.00866603851318,95.9161294734597L119.25883269309998,98.19910456562003L121.50899934768677,97.93326254171821L123.75916600227356,97.74529949859694L126.00933265686035,100.03620283003015L128.25949931144714,99.7324152789238L130.50966596603394,100.21160760671737L132.75983262062073,101.29839818249748L135.00999927520752,93.11643511450711L137.2601659297943,88.73854347482231L139.5103325843811,89.84290786715637L141.7604992389679,91.3695014422379L144.0106658935547,92.97191771581483L146.26083254814148,92.73470272826619L148.51099920272827,93.36905396497933L150.76116585731506,95.24530617492078L153.01133251190186,98.8072978405005L155.26149916648865,100.79376386023795L157.51166582107544,102.90877227117666L159.76183247566223,102.23494312565738L162.01199913024902,102.54690167740884L164.26216578483582,103.31757723346796L166.5123324394226,104.54689213801046L168.7624990940094,107.3189992785078L171.0126657485962,108.2614222346038L173.26283240318298,106.43182100186131L175.51299905776978,106.23547487411577L177.76316571235657,108.44463973393943L180.01333236694336,108.60036242955704L182.26349902153015,109.82549863944239L184.51366567611694,110.48725445398536L186.76383233070374,108.36702292001696L189.01399898529053,110.19983976176147L191.26416563987732,110.23479790234404L193.5143322944641,111.59224785904482L195.7644989490509,113.44712719783054L198.0146656036377,113.47722969703894L200.2648322582245,116.02591711196007L202.51499891281128,115.10768127444109L204.76516556739807,114.87735915842978L207.01533222198486,115.44173502128069L209.26549887657166,117.32070192190044L211.51566553115845,118.7124028089799L213.76583218574524,117.36344649460978L216.01599884033203,118.38463869464512L218.26616549491882,119.09320954461765L220.51633214950562,118.72974523424134L222.7664988040924,119.06095888030165L225.0166654586792,118.55633637960045L227.266832113266,117.09910805775843L229.51699876785278,117.95370333314037L231.76716542243958,118.6202515800409L234.01733207702637,118.08083262982294L236.26749873161316,117.67760411110515L238.51766538619995,118.90324262677052L240.76783204078674,121.80436547236872L243.01799869537354,121.93563414760385L245.26816534996033,121.78918748534812" fill="none"></path></g></g></g></g><g opacity="0.2"><g><g><g><path style="fill: none;" stroke="rgb(255, 112, 67)" stroke-width="2px" d="M22.50166654586792,22.71026927647125L24.751833200454712,15.147663580606974L27.001999855041504,8.51305265558534L29.252166509628296,20.32827810968263L31.502333164215088,13.986411884677693L33.75249981880188,28.673032506269237L36.00266647338867,35.150751532716015L38.252833127975464,39.12358396472732L40.502999782562256,46.59032203225206L42.75316643714905,49.701942796453835L45.00333309173584,58.45539284585956L47.25349974632263,52.26260296063249L49.503666400909424,61.60430689178227L51.753833055496216,64.10633826659527L54.00399971008301,64.76766036405824L56.2541663646698,68.28736581247348L58.50433301925659,71.11731795108373L60.754499673843384,74.53517916737347L63.004666328430176,78.60328035750693L65.25483298301697,73.38142242295305L67.50499963760376,79.8924362138105L69.75516629219055,81.21872807278801L72.00533294677734,83.17974372270346L74.25549960136414,87.22135549180595L76.50566625595093,82.3787941266707L78.75583291053772,81.27090842122674L81.00599956512451,85.87894857970522L83.2561662197113,82.46353123783808L85.5063328742981,83.59619444237839L87.75649952888489,85.13808562881994L90.00666618347168,85.97606839122666L92.25683283805847,88.5266505980092L94.50699949264526,86.09873394949706L96.75716614723206,93.93129703114563L99.00733280181885,91.61157626858008L101.25749945640564,99.30792964633403L103.50766611099243,94.51417317932118L105.75783276557922,94.52194639375936L108.00799942016602,93.78410803993172L110.25816607475281,98.92418691924063L112.5083327293396,94.43883651580902L114.75849938392639,94.8968996418032L117.00866603851318,97.00376136183895L119.25883269309998,101.62356720287174L121.50899934768677,97.53449950593459L123.75916600227356,97.46335493394433L126.00933265686035,103.47255782696561L128.25949931144714,99.27673395228133L130.50966596603394,100.93039609839161L132.75983262062073,102.92858404614567L135.00999927520752,80.84349051262073L137.2601659297943,82.17170601532693L139.5103325843811,91.49945445565267L141.7604992389679,93.65939180485621L144.0106658935547,95.37554212617772L146.26083254814148,92.37888024694342L148.51099920272827,94.32058082004866L150.76116585731506,98.05968448983235L153.01133251190186,104.15028533886935L155.26149916648865,103.77346288984387L157.51166582107544,106.08128488758459L159.76183247566223,101.22419940737846L162.01199913024902,103.014839505036L164.26216578483582,104.47359056755661L166.5123324394226,106.3908644948242L168.7624990940094,111.47715998925382L171.0126657485962,109.67505666874776L173.26283240318298,103.68741915274758L175.51299905776978,105.94095568249745L177.76316571235657,111.75838702367493L180.01333236694336,108.83394647298343L182.26349902153015,111.6632029542704L184.51366567611694,111.47988817579983L186.76383233070374,105.18667561906437L189.01399898529053,112.9490650243782L191.26416563987732,110.2872351132179L193.5143322944641,113.628422794096L195.7644989490509,116.2294462060091L198.0146656036377,113.52238344585155L200.2648322582245,119.8489482343418L202.51499891281128,113.73032751816264L204.76516556739807,114.5318759844128L207.01533222198486,116.28829881555704L209.26549887657166,120.13915227283005L211.51566553115845,120.79995413959912L213.76583218574524,115.34001202305456L216.01599884033203,119.91642699469816L218.26616549491882,120.15606581957647L220.51633214950562,118.18454876867683L222.7664988040924,119.55777934939215L225.0166654586792,117.79940262854868L227.266832113266,114.91326557499535L229.51699876785278,119.23559624621328L231.76716542243958,119.62007395039169L234.01733207702637,117.27170420449599L236.26749873161316,117.07276133302848L238.51766538619995,120.7417004002686L240.76783204078674,126.15604974076601L243.01799869537354,122.13253716045655L245.26816534996033,121.56951749196453" fill="none"></path></g></g></g></g></g><g><g opacity="0.106281"><span style="white-space: normal;" fill="rgb(0, 0, 0)" stroke="none" stroke-width="1px">Alt + Scroll to Zoom</span></g></g></g><g transform="translate(59, 178)" clip-path="url(#clip_1)"><clipPath id="clip_1"><rect width="270" height="21"></rect></clipPath><g><g><line x1="0" y1="0" x2="0" y2="5" style="visibility: inherit;" fill="rgb(0, 0, 0)" stroke="rgb(204, 204, 204)" stroke-width="1px"></line><line x1="22.50166654586792" y1="0" x2="22.50166654586792" y2="5" style="visibility: inherit;" fill="rgb(0, 0, 0)" stroke="rgb(204, 204, 204)" stroke-width="1px"></line><line x1="45.00333309173584" y1="0" x2="45.00333309173584" y2="5" style="visibility: inherit;" fill="rgb(0, 0, 0)" stroke="rgb(204, 204, 204)" stroke-width="1px"></line><line x1="67.50499963760376" y1="0" x2="67.50499963760376" y2="5" style="visibility: inherit;" fill="rgb(0, 0, 0)" stroke="rgb(204, 204, 204)" stroke-width="1px"></line><line x1="90.00666618347168" y1="0" x2="90.00666618347168" y2="5" style="visibility: inherit;" fill="rgb(0, 0, 0)" stroke="rgb(204, 204, 204)" stroke-width="1px"></line><line x1="112.5083327293396" y1="0" x2="112.5083327293396" y2="5" style="visibility: inherit;" fill="rgb(0, 0, 0)" stroke="rgb(204, 204, 204)" stroke-width="1px"></line><line x1="135.00999927520752" y1="0" x2="135.00999927520752" y2="5" style="visibility: inherit;" fill="rgb(0, 0, 0)" stroke="rgb(204, 204, 204)" stroke-width="1px"></line><line x1="157.51166582107544" y1="0" x2="157.51166582107544" y2="5" style="visibility: inherit;" fill="rgb(0, 0, 0)" stroke="rgb(204, 204, 204)" stroke-width="1px"></line><line x1="180.01333236694336" y1="0" x2="180.01333236694336" y2="5" style="visibility: inherit;" fill="rgb(0, 0, 0)" stroke="rgb(204, 204, 204)" stroke-width="1px"></line><line x1="202.51499891281128" y1="0" x2="202.51499891281128" y2="5" style="visibility: inherit;" fill="rgb(0, 0, 0)" stroke="rgb(204, 204, 204)" stroke-width="1px"></line><line x1="225.0166654586792" y1="0" x2="225.0166654586792" y2="5" style="visibility: inherit;" fill="rgb(0, 0, 0)" stroke="rgb(204, 204, 204)" stroke-width="1px"></line><line x1="247.51833200454712" y1="0" x2="247.51833200454712" y2="5" style="visibility: inherit;" fill="rgb(0, 0, 0)" stroke="rgb(204, 204, 204)" stroke-width="1px"></line><line x1="270.01999855041504" y1="0" x2="270.01999855041504" y2="5" style="visibility: inherit;" fill="rgb(0, 0, 0)" stroke="rgb(204, 204, 204)" stroke-width="1px"></line></g><g transform="translate(0, 8)"><text style="text-anchor: middle; visibility: hidden; font-family: &quot;Helvetica Neue&quot;, sans-serif; font-size: 12px; font-weight: 200;" x="0" y="0" dx="0em" dy="0.95em" fill="rgb(50, 49, 63)" stroke="none" stroke-width="1px">-10</text><text style="text-anchor: middle; visibility: inherit; font-family: &quot;Helvetica Neue&quot;, sans-serif; font-size: 12px; font-weight: 200;" x="22.50166654586792" y="0" dx="0em" dy="0.95em" fill="rgb(50, 49, 63)" stroke="none" stroke-width="1px">0</text><text style="text-anchor: middle; visibility: hidden; font-family: &quot;Helvetica Neue&quot;, sans-serif; font-size: 12px; font-weight: 200;" x="45.00333309173584" y="0" dx="0em" dy="0.95em" fill="rgb(50, 49, 63)" stroke="none" stroke-width="1px">10</text><text style="text-anchor: middle; visibility: inherit; font-family: &quot;Helvetica Neue&quot;, sans-serif; font-size: 12px; font-weight: 200;" x="67.50499963760376" y="0" dx="0em" dy="0.95em" fill="rgb(50, 49, 63)" stroke="none" stroke-width="1px">20</text><text style="text-anchor: middle; visibility: hidden; font-family: &quot;Helvetica Neue&quot;, sans-serif; font-size: 12px; font-weight: 200;" x="90.00666618347168" y="0" dx="0em" dy="0.95em" fill="rgb(50, 49, 63)" stroke="none" stroke-width="1px">30</text><text style="text-anchor: middle; visibility: inherit; font-family: &quot;Helvetica Neue&quot;, sans-serif; font-size: 12px; font-weight: 200;" x="112.5083327293396" y="0" dx="0em" dy="0.95em" fill="rgb(50, 49, 63)" stroke="none" stroke-width="1px">40</text><text style="text-anchor: middle; visibility: hidden; font-family: &quot;Helvetica Neue&quot;, sans-serif; font-size: 12px; font-weight: 200;" x="135.00999927520752" y="0" dx="0em" dy="0.95em" fill="rgb(50, 49, 63)" stroke="none" stroke-width="1px">50</text><text style="text-anchor: middle; visibility: inherit; font-family: &quot;Helvetica Neue&quot;, sans-serif; font-size: 12px; font-weight: 200;" x="157.51166582107544" y="0" dx="0em" dy="0.95em" fill="rgb(50, 49, 63)" stroke="none" stroke-width="1px">60</text><text style="text-anchor: middle; visibility: hidden; font-family: &quot;Helvetica Neue&quot;, sans-serif; font-size: 12px; font-weight: 200;" x="180.01333236694336" y="0" dx="0em" dy="0.95em" fill="rgb(50, 49, 63)" stroke="none" stroke-width="1px">70</text><text style="text-anchor: middle; visibility: inherit; font-family: &quot;Helvetica Neue&quot;, sans-serif; font-size: 12px; font-weight: 200;" x="202.51499891281128" y="0" dx="0em" dy="0.95em" fill="rgb(50, 49, 63)" stroke="none" stroke-width="1px">80</text><text style="text-anchor: middle; visibility: hidden; font-family: &quot;Helvetica Neue&quot;, sans-serif; font-size: 12px; font-weight: 200;" x="225.0166654586792" y="0" dx="0em" dy="0.95em" fill="rgb(50, 49, 63)" stroke="none" stroke-width="1px">90</text><text style="text-anchor: middle; visibility: inherit; font-family: &quot;Helvetica Neue&quot;, sans-serif; font-size: 12px; font-weight: 200;" x="247.51833200454712" y="0" dx="0em" dy="0.95em" fill="rgb(50, 49, 63)" stroke="none" stroke-width="1px">100</text><text style="text-anchor: middle; visibility: hidden; font-family: &quot;Helvetica Neue&quot;, sans-serif; font-size: 12px; font-weight: 200;" x="270.01999855041504" y="0" dx="0em" dy="0.95em" fill="rgb(50, 49, 63)" stroke="none" stroke-width="1px">110</text></g><line x1="0" y1="0" x2="270.01999855041504" y2="0" fill="rgb(0, 0, 0)" stroke="rgb(204, 204, 204)" stroke-width="1px"></line></g></g></g></g></svg>