<svg viewBox="0 0 330 200" xmlns="http://www.w3.org/2000/svg"><g><g><g><g><g><line x1="59.98000144958496" y1="178.61999988555908" x2="54.98000144958496" y2="178.61999988555908" style="visibility: inherit;" fill="rgb(0, 0, 0)" stroke="rgb(204, 204, 204)" stroke-width="1px"></line><line x1="59.98000144958496" y1="158.77333323160806" x2="54.98000144958496" y2="158.77333323160806" style="visibility: inherit;" fill="rgb(0, 0, 0)" stroke="rgb(204, 204, 204)" stroke-width="1px"></line><line x1="59.98000144958496" y1="138.92666657765704" x2="54.98000144958496" y2="138.92666657765704" style="visibility: inherit;" fill="rgb(0, 0, 0)" stroke="rgb(204, 204, 204)" stroke-width="1px"></line><line x1="59.98000144958496" y1="119.07999992370605" x2="54.98000144958496" y2="119.07999992370605" style="visibility: inherit;" fill="rgb(0, 0, 0)" stroke="rgb(204, 204, 204)" stroke-width="1px"></line><line x1="59.98000144958496" y1="99.23333326975504" x2="54.98000144958496" y2="99.23333326975504" style="visibility: inherit;" fill="rgb(0, 0, 0)" stroke="rgb(204, 204, 204)" stroke-width="1px"></line><line x1="59.98000144958496" y1="79.38666661580403" x2="54.98000144958496" y2="79.38666661580403" style="visibility: inherit;" fill="rgb(0, 0, 0)" stroke="rgb(204, 204, 204)" stroke-width="1px"></line><line x1="59.98000144958496" y1="59.53999996185303" x2="54.98000144958496" y2="59.53999996185303" style="visibility: inherit;" fill="rgb(0, 0, 0)" stroke="rgb(204, 204, 204)" stroke-width="1px"></line><line x1="59.98000144958496" y1="39.69333330790204" x2="54.98000144958496" y2="39.69333330790204" style="visibility: inherit;" fill="rgb(0, 0, 0)" stroke="rgb(204, 204, 204)" stroke-width="1px"></line><line x1="59.98000144958496" y1="19.84666665395102" x2="54.98000144958496" y2="19.84666665395102" style="visibility: inherit;" fill="rgb(0, 0, 0)" stroke="rgb(204, 204, 204)" stroke-width="1px"></line><line x1="59.98000144958496" y1="0" x2="54.98000144958496" y2="0" style="visibility: inherit;" fill="rgb(0, 0, 0)" stroke="rgb(204, 204, 204)" stroke-width="1px"></line></g><g transform="translate(49.98000144958496, 0)"><text style="text-anchor: end; visibility: hidden; font-family: &quot;Helvetica Neue&quot;, sans-serif; font-size: 12px; font-weight: 200;" x="0" y="178.61999988555908" dx="0em" dy="0.3em" fill="rgb(50, 49, 63)" stroke="none" stroke-width="1px">-0.05</text><text style="text-anchor: end; visibility: inherit; font-family: &quot;Helvetica Neue&quot;, sans-serif; font-size: 12px; font-weight: 200;" x="0" y="158.77333323160806" dx="0em" dy="0.3em" fill="rgb(50, 49, 63)" stroke="none" stroke-width="1px">0</text><text style="text-anchor: end; visibility: hidden; font-family: &quot;Helvetica Neue&quot;, sans-serif; font-size: 12px; font-weight: 200;" x="0" y="138.92666657765704" dx="0em" dy="0.3em" fill="rgb(50, 49, 63)" stroke="none" stroke-width="1px">0.05</text><text style="text-anchor: end; visibility: inherit; font-family: &quot;Helvetica Neue&quot;, sans-serif; font-size: 12px; font-weight: 200;" x="0" y="119.07999992370605" dx="0em" dy="0.3em" fill="rgb(50, 49, 63)" stroke="none" stroke-width="1px">0.1</text><text style="text-anchor: end; visibility: hidden; font-family: &quot;Helvetica Neue&quot;, sans-serif; font-size: 12px; font-weight: 200;" x="0" y="99.23333326975504" dx="0em" dy="0.3em" fill="rgb(50, 49, 63)" stroke="none" stroke-width="1px">0.15</text><text style="text-anchor: end; visibility: inherit; font-family: &quot;Helvetica Neue&quot;, sans-serif; font-size: 12px; font-weight: 200;" x="0" y="79.38666661580403" dx="0em" dy="0.3em" fill="rgb(50, 49, 63)" stroke="none" stroke-width="1px">0.2</text><text style="text-anchor: end; visibility: hidden; font-family: &quot;Helvetica Neue&quot;, sans-serif; font-size: 12px; font-weight: 200;" x="0" y="59.53999996185303" dx="0em" dy="0.3em" fill="rgb(50, 49, 63)" stroke="none" stroke-width="1px">0.25</text><text style="text-anchor: end; visibility: inherit; font-family: &quot;Helvetica Neue&quot;, sans-serif; font-size: 12px; font-weight: 200;" x="0" y="39.69333330790204" dx="0em" dy="0.3em" fill="rgb(50, 49, 63)" stroke="none" stroke-width="1px">0.3</text><text style="text-anchor: end; visibility: hidden; font-family: &quot;Helvetica Neue&quot;, sans-serif; font-size: 12px; font-weight: 200;" x="0" y="19.84666665395102" dx="0em" dy="0.3em" fill="rgb(50, 49, 63)" stroke="none" stroke-width="1px">0.35</text><text style="text-anchor: end; visibility: hidden; font-family: &quot;Helvetica Neue&quot;, sans-serif; font-size: 12px; font-weight: 200;" x="0" y="0" dx="0em" dy="0.3em" fill="rgb(50, 49, 63)" stroke="none" stroke-width="1px">0.4</text></g><line x1="59.98000144958496" y1="0" x2="59.98000144958496" y2="178.61999988555908" fill="rgb(0, 0, 0)" stroke="rgb(204, 204, 204)" stroke-width="1px"></line></g></g><g transform="translate(59, 0)" clip-path="url(#clip_0)"><clipPath id="clip_0"><rect width="270" height="178"></rect></clipPath><g><g><g><line x1="0" y1="0" x2="0" y2="178.61999988555908" fill="rgb(0, 0, 0)" stroke="rgb(60, 60, 60)" stroke-width="1px" opacity="0.25"></line><line x1="22.50166654586792" y1="0" x2="22.50166654586792" y2="178.61999988555908" fill="rgb(0, 0, 0)" stroke="rgb(60, 60, 60)" stroke-width="1px" opacity="0.25"></line><line x1="45.00333309173584" y1="0" x2="45.00333309173584" y2="178.61999988555908" fill="rgb(0, 0, 0)" stroke="rgb(60, 60, 60)" stroke-width="1px" opacity="0.25"></line><line x1="67.50499963760376" y1="0" x2="67.50499963760376" y2="178.61999988555908" fill="rgb(0, 0, 0)" stroke="rgb(60, 60, 60)" stroke-width="1px" opacity="0.25"></line><line x1="90.00666618347168" y1="0" x2="90.00666618347168" y2="178.61999988555908" fill="rgb(0, 0, 0)" stroke="rgb(60, 60, 60)" stroke-width="1px" opacity="0.25"></line><line x1="112.5083327293396" y1="0" x2="112.5083327293396" y2="178.61999988555908" fill="rgb(0, 0, 0)" stroke="rgb(60, 60, 60)" stroke-width="1px" opacity="0.25"></line><line x1="135.00999927520752" y1="0" x2="135.00999927520752" y2="178.61999988555908" fill="rgb(0, 0, 0)" stroke="rgb(60, 60, 60)" stroke-width="1px" opacity="0.25"></line><line x1="157.51166582107544" y1="0" x2="157.51166582107544" y2="178.61999988555908" fill="rgb(0, 0, 0)" stroke="rgb(60, 60, 60)" stroke-width="1px" opacity="0.25"></line><line x1="180.01333236694336" y1="0" x2="180.01333236694336" y2="178.61999988555908" fill="rgb(0, 0, 0)" stroke="rgb(60, 60, 60)" stroke-width="1px" opacity="0.25"></line><line x1="202.51499891281128" y1="0" x2="202.51499891281128" y2="178.61999988555908" fill="rgb(0, 0, 0)" stroke="rgb(60, 60, 60)" stroke-width="1px" opacity="0.25"></line><line x1="225.0166654586792" y1="0" x2="225.0166654586792" y2="178.61999988555908" fill="rgb(0, 0, 0)" stroke="rgb(60, 60, 60)" stroke-width="1px" opacity="0.25"></line><line x1="247.51833200454712" y1="0" x2="247.51833200454712" y2="178.61999988555908" fill="rgb(0, 0, 0)" stroke="rgb(60, 60, 60)" stroke-width="1px" opacity="0.25"></line><line x1="270.01999855041504" y1="0" x2="270.01999855041504" y2="178.61999988555908" fill="rgb(0, 0, 0)" stroke="rgb(60, 60, 60)" stroke-width="1px" opacity="0.25"></line></g><g><line x1="0" y1="178.61999988555908" x2="270.01999855041504" y2="178.61999988555908" fill="rgb(0, 0, 0)" stroke="rgb(60, 60, 60)" stroke-width="1px" opacity="0.25"></line><line x1="0" y1="158.77333323160806" x2="270.01999855041504" y2="158.77333323160806" fill="rgb(0, 0, 0)" stroke="rgb(60, 60, 60)" stroke-width="1px" opacity="0.25"></line><line x1="0" y1="138.92666657765704" x2="270.01999855041504" y2="138.92666657765704" fill="rgb(0, 0, 0)" stroke="rgb(60, 60, 60)" stroke-width="1px" opacity="0.25"></line><line x1="0" y1="119.07999992370605" x2="270.01999855041504" y2="119.07999992370605" fill="rgb(0, 0, 0)" stroke="rgb(60, 60, 60)" stroke-width="1px" opacity="0.25"></line><line x1="0" y1="99.23333326975504" x2="270.01999855041504" y2="99.23333326975504" fill="rgb(0, 0, 0)" stroke="rgb(60, 60, 60)" stroke-width="1px" opacity="0.25"></line><line x1="0" y1="79.38666661580403" x2="270.01999855041504" y2="79.38666661580403" fill="rgb(0, 0, 0)" stroke="rgb(60, 60, 60)" stroke-width="1px" opacity="0.25"></line><line x1="0" y1="59.53999996185303" x2="270.01999855041504" y2="59.53999996185303" fill="rgb(0, 0, 0)" stroke="rgb(60, 60, 60)" stroke-width="1px" opacity="0.25"></line><line x1="0" y1="39.69333330790204" x2="270.01999855041504" y2="39.69333330790204" fill="rgb(0, 0, 0)" stroke="rgb(60, 60, 60)" stroke-width="1px" opacity="0.25"></line><line x1="0" y1="19.84666665395102" x2="270.01999855041504" y2="19.84666665395102" fill="rgb(0, 0, 0)" stroke="rgb(60, 60, 60)" stroke-width="1px" opacity="0.25"></line><line x1="0" y1="0" x2="270.01999855041504" y2="0" fill="rgb(0, 0, 0)" stroke="rgb(60, 60, 60)" stroke-width="1px" opacity="0.25"></line></g></g></g><g><g><line x1="0" y1="158.77333323160806" x2="270.01999855041504" y2="158.77333323160806" fill="rgb(0, 0, 0)" stroke="rgb(153, 153, 153)" stroke-width="1.5px"></line></g></g><g><g><line x1="22.50166654586792" y1="0" x2="22.50166654586792" y2="178.61999988555908" fill="rgb(0, 0, 0)" stroke="rgb(153, 153, 153)" stroke-width="1.5px"></line></g></g><g><g><g><g><g><path style="fill: none;" stroke="rgb(255, 112, 67)" stroke-width="2px" d="M29.252166509628296,-10.861515833458668L31.502333164215088,8.283578542884783L33.75249981880188,24.31885512287272L36.00266647338867,35.329511609798715L38.252833127975464,47.27318386156247L40.502999782562256,54.58872758599517L42.75316643714905,61.95100069354636L45.00333309173584,68.85872679364674L47.25349974632263,72.06278752473226L49.503666400909424,76.18168674622198L51.753833055496216,82.6783664486841L54.00399971008301,85.48869975994384L56.2541663646698,87.57982435316586L58.50433301925659,89.10735902541849L60.754499673843384,91.41877350810043L63.004666328430176,95.83027203934734L65.25483298301697,94.85944231062889L67.50499963760376,95.37021529907025L69.75516629219055,98.44569734603006L72.00533294677734,101.64391055574642L74.25549960136414,101.21863266760218L76.50566625595093,101.29411550166914L78.75583291053772,103.97094406563635L81.00599956512451,105.97038019189951L83.2561662197113,106.25201838183227L85.5063328742981,106.28567835074571L87.75649952888489,107.00060651627315L90.00666618347168,108.20617949834924L92.25683283805847,109.50287240914663L94.50699949264526,110.70326876031453L96.75716614723206,111.2886462807944L99.00733280181885,112.26645961141347L101.25749945640564,114.84497754168673L103.50766611099243,115.1511239017996L105.75783276557922,115.85749144891446L108.00799942016602,116.08511085378358L110.25816607475281,115.43310202256754L112.5083327293396,115.17252673239905L114.75849938392639,115.13558415456848L117.00866603851318,114.74575665503849L119.25883269309998,114.95926145585213L121.50899934768677,115.09998763328593L123.75916600227356,115.37949710633244L126.00933265686035,117.34862688032206L128.25949931144714,117.8693849856129L130.50966596603394,118.17008838855295L132.75983262062073,119.08117823075548L135.00999927520752,107.64919396716817L137.2601659297943,105.3420534904211L139.5103325843811,105.01927124869448L141.7604992389679,108.99208839672708L144.0106658935547,110.115347629136L146.26083254814148,110.67288398126861L148.51099920272827,111.07498674395701L150.76116585731506,113.36163062934955L153.01133251190186,116.0638612016856L155.26149916648865,117.79797168670986L157.51166582107544,118.68982471047732L159.76183247566223,118.52297664022606L162.01199913024902,119.44050356011483L164.26216578483582,121.32002303491055L166.5123324394226,120.63143617217375L168.7624990940094,122.08117914113656L171.0126657485962,123.72066276062323L173.26283240318298,122.64219169186666L175.51299905776978,124.02529269161988L177.76316571235657,125.66756436280812L180.01333236694336,126.97430034718138L182.26349902153015,126.11739850461825L184.51366567611694,126.70927753305915L186.76383233070374,126.89022214263082L189.01399898529053,128.0935224828576L191.26416563987732,128.43968545271827L193.5143322944641,129.1156837747819L195.7644989490509,130.7680353329231L198.0146656036377,130.64845536315525L200.2648322582245,131.15005064479172L202.51499891281128,130.5759203163052L204.76516556739807,131.50376067550158L207.01533222198486,131.1602940472002L209.26549887657166,131.98779249679245L211.51566553115845,131.38129387880207L213.76583218574524,130.48012442902404L216.01599884033203,130.77354930818464L218.26616549491882,132.1781937323011L220.51633214950562,132.5280886089356L222.7664988040924,132.52046855381002L225.0166654586792,131.44835549872053L227.266832113266,132.33570057328797L229.51699876785278,133.01597148422312L231.76716542243958,132.38936732740444L234.01733207702637,133.39851564143407L236.26749873161316,133.01884685659098L238.51766538619995,134.16066798342246L240.76783204078674,135.41191038268846L243.01799869537354,136.29423633329662L245.26816534996033,135.31487228781612" fill="none"></path></g></g></g></g><g opacity="0.2"><g><g><g><path style="fill: none;" stroke="rgb(255, 112, 67)" stroke-width="2px" d="M27.001999855041504,-0.11484349322907406L29.252166509628296,11.039343503395969L31.502333164215088,33.279413760638874L33.75249981880188,46.501415332564875L36.00266647338867,51.0749265566066L38.252833127975464,64.68717266388771L40.502999782562256,65.37773360832034L42.75316643714905,72.88311822950287L45.00333309173584,79.15766337647806L47.25349974632263,76.85144226435331L49.503666400909424,82.34658665785295L51.753833055496216,92.41065833052025L54.00399971008301,89.70089628552188L56.2541663646698,90.71503641992194L58.50433301925659,91.39801463231777L60.754499673843384,94.8853083642366L63.004666328430176,102.44684778881815L65.25483298301697,93.40328645523395L67.50499963760376,96.13634676972765L69.75516629219055,103.05881921642302L72.00533294677734,106.44116722718015L74.25549960136414,100.58072087320787L76.50566625595093,101.40733921626995L78.75583291053772,107.98617549613606L81.00599956512451,108.96952926528523L83.2561662197113,106.67447523435044L85.5063328742981,106.33616827311026L87.75649952888489,108.07299836943439L90.00666618347168,110.0145385716823L92.25683283805847,111.4479115173442L94.50699949264526,112.50386314376318L96.75716614723206,112.16671251958478L99.00733280181885,113.73317956531884L101.25749945640564,118.7127543706068L103.50766611099243,115.61034343723232L105.75783276557922,116.91704276302951L108.00799942016602,116.42653995981945L110.25816607475281,114.4550887779224L112.5083327293396,114.78166379766881L114.75849938392639,115.08017028786706L117.00866603851318,114.16101540602493L119.25883269309998,115.27951865698009L121.50899934768677,115.3110768994001L123.75916600227356,115.79876131585858L126.00933265686035,120.30232154112227L128.25949931144714,118.65052214351991L130.50966596603394,118.62114349295292L132.75983262062073,120.44781299404089L135.00999927520752,90.50121757192585L137.2601659297943,101.88134277531721L139.5103325843811,104.53509788610603L141.7604992389679,114.95131411876557L144.0106658935547,111.8002364777476L146.26083254814148,111.50918850946701L148.51099920272827,111.67814088798939L150.76116585731506,116.79159645743758L153.01133251190186,120.11720706018912L155.26149916648865,120.39913741424604L157.51166582107544,120.02760424612845L159.76183247566223,118.2727045348492L162.01199913024902,120.81679393994796L164.26216578483582,124.13930224710408L166.5123324394226,119.59855587806857L168.7624990940094,124.2557935945808L171.0126657485962,126.17988818985319L173.26283240318298,121.02448508873177L175.51299905776978,126.09994419124973L177.76316571235657,128.1309718695905L180.01333236694336,128.93440432374126L182.26349902153015,124.83204574077354L184.51366567611694,127.59709607572054L186.76383233070374,127.16163905698835L189.01399898529053,129.89847299319771L191.26416563987732,128.95892990750934L193.5143322944641,130.12968125787734L195.7644989490509,133.24656267013484L198.0146656036377,130.46908540850347L200.2648322582245,131.90244356724645L202.51499891281128,129.7147248235754L204.76516556739807,132.89552121429617L207.01533222198486,130.64509410474813L209.26549887657166,133.22904017118083L211.51566553115845,130.47154595181652L213.76583218574524,129.12837025435704L216.01599884033203,131.21368662692552L218.26616549491882,134.28516036847583L220.51633214950562,133.05293092388732L222.7664988040924,132.5090384711216L225.0166654586792,129.8401859160863L227.266832113266,133.66671818513908L229.51699876785278,134.03637785062588L231.76716542243958,131.44946109217642L234.01733207702637,134.91223811247855L236.26749873161316,132.4493436793263L238.51766538619995,135.87339967366972L240.76783204078674,137.28877398158744L243.01799869537354,137.61772525920887L245.26816534996033,133.84582621959532" fill="none"></path></g></g></g></g></g></g><g transform="translate(59, 178)" clip-path="url(#clip_1)"><clipPath id="clip_1"><rect width="270" height="21"></rect></clipPath><g><g><line x1="0" y1="0" x2="0" y2="5" style="visibility: inherit;" fill="rgb(0, 0, 0)" stroke="rgb(204, 204, 204)" stroke-width="1px"></line><line x1="22.50166654586792" y1="0" x2="22.50166654586792" y2="5" style="visibility: inherit;" fill="rgb(0, 0, 0)" stroke="rgb(204, 204, 204)" stroke-width="1px"></line><line x1="45.00333309173584" y1="0" x2="45.00333309173584" y2="5" style="visibility: inherit;" fill="rgb(0, 0, 0)" stroke="rgb(204, 204, 204)" stroke-width="1px"></line><line x1="67.50499963760376" y1="0" x2="67.50499963760376" y2="5" style="visibility: inherit;" fill="rgb(0, 0, 0)" stroke="rgb(204, 204, 204)" stroke-width="1px"></line><line x1="90.00666618347168" y1="0" x2="90.00666618347168" y2="5" style="visibility: inherit;" fill="rgb(0, 0, 0)" stroke="rgb(204, 204, 204)" stroke-width="1px"></line><line x1="112.5083327293396" y1="0" x2="112.5083327293396" y2="5" style="visibility: inherit;" fill="rgb(0, 0, 0)" stroke="rgb(204, 204, 204)" stroke-width="1px"></line><line x1="135.00999927520752" y1="0" x2="135.00999927520752" y2="5" style="visibility: inherit;" fill="rgb(0, 0, 0)" stroke="rgb(204, 204, 204)" stroke-width="1px"></line><line x1="157.51166582107544" y1="0" x2="157.51166582107544" y2="5" style="visibility: inherit;" fill="rgb(0, 0, 0)" stroke="rgb(204, 204, 204)" stroke-width="1px"></line><line x1="180.01333236694336" y1="0" x2="180.01333236694336" y2="5" style="visibility: inherit;" fill="rgb(0, 0, 0)" stroke="rgb(204, 204, 204)" stroke-width="1px"></line><line x1="202.51499891281128" y1="0" x2="202.51499891281128" y2="5" style="visibility: inherit;" fill="rgb(0, 0, 0)" stroke="rgb(204, 204, 204)" stroke-width="1px"></line><line x1="225.0166654586792" y1="0" x2="225.0166654586792" y2="5" style="visibility: inherit;" fill="rgb(0, 0, 0)" stroke="rgb(204, 204, 204)" stroke-width="1px"></line><line x1="247.51833200454712" y1="0" x2="247.51833200454712" y2="5" style="visibility: inherit;" fill="rgb(0, 0, 0)" stroke="rgb(204, 204, 204)" stroke-width="1px"></line><line x1="270.01999855041504" y1="0" x2="270.01999855041504" y2="5" style="visibility: inherit;" fill="rgb(0, 0, 0)" stroke="rgb(204, 204, 204)" stroke-width="1px"></line></g><g transform="translate(0, 8)"><text style="text-anchor: middle; visibility: hidden; font-family: &quot;Helvetica Neue&quot;, sans-serif; font-size: 12px; font-weight: 200;" x="0" y="0" dx="0em" dy="0.95em" fill="rgb(50, 49, 63)" stroke="none" stroke-width="1px">-10</text><text style="text-anchor: middle; visibility: inherit; font-family: &quot;Helvetica Neue&quot;, sans-serif; font-size: 12px; font-weight: 200;" x="22.50166654586792" y="0" dx="0em" dy="0.95em" fill="rgb(50, 49, 63)" stroke="none" stroke-width="1px">0</text><text style="text-anchor: middle; visibility: hidden; font-family: &quot;Helvetica Neue&quot;, sans-serif; font-size: 12px; font-weight: 200;" x="45.00333309173584" y="0" dx="0em" dy="0.95em" fill="rgb(50, 49, 63)" stroke="none" stroke-width="1px">10</text><text style="text-anchor: middle; visibility: inherit; font-family: &quot;Helvetica Neue&quot;, sans-serif; font-size: 12px; font-weight: 200;" x="67.50499963760376" y="0" dx="0em" dy="0.95em" fill="rgb(50, 49, 63)" stroke="none" stroke-width="1px">20</text><text style="text-anchor: middle; visibility: hidden; font-family: &quot;Helvetica Neue&quot;, sans-serif; font-size: 12px; font-weight: 200;" x="90.00666618347168" y="0" dx="0em" dy="0.95em" fill="rgb(50, 49, 63)" stroke="none" stroke-width="1px">30</text><text style="text-anchor: middle; visibility: inherit; font-family: &quot;Helvetica Neue&quot;, sans-serif; font-size: 12px; font-weight: 200;" x="112.5083327293396" y="0" dx="0em" dy="0.95em" fill="rgb(50, 49, 63)" stroke="none" stroke-width="1px">40</text><text style="text-anchor: middle; visibility: hidden; font-family: &quot;Helvetica Neue&quot;, sans-serif; font-size: 12px; font-weight: 200;" x="135.00999927520752" y="0" dx="0em" dy="0.95em" fill="rgb(50, 49, 63)" stroke="none" stroke-width="1px">50</text><text style="text-anchor: middle; visibility: inherit; font-family: &quot;Helvetica Neue&quot;, sans-serif; font-size: 12px; font-weight: 200;" x="157.51166582107544" y="0" dx="0em" dy="0.95em" fill="rgb(50, 49, 63)" stroke="none" stroke-width="1px">60</text><text style="text-anchor: middle; visibility: hidden; font-family: &quot;Helvetica Neue&quot;, sans-serif; font-size: 12px; font-weight: 200;" x="180.01333236694336" y="0" dx="0em" dy="0.95em" fill="rgb(50, 49, 63)" stroke="none" stroke-width="1px">70</text><text style="text-anchor: middle; visibility: inherit; font-family: &quot;Helvetica Neue&quot;, sans-serif; font-size: 12px; font-weight: 200;" x="202.51499891281128" y="0" dx="0em" dy="0.95em" fill="rgb(50, 49, 63)" stroke="none" stroke-width="1px">80</text><text style="text-anchor: middle; visibility: hidden; font-family: &quot;Helvetica Neue&quot;, sans-serif; font-size: 12px; font-weight: 200;" x="225.0166654586792" y="0" dx="0em" dy="0.95em" fill="rgb(50, 49, 63)" stroke="none" stroke-width="1px">90</text><text style="text-anchor: middle; visibility: inherit; font-family: &quot;Helvetica Neue&quot;, sans-serif; font-size: 12px; font-weight: 200;" x="247.51833200454712" y="0" dx="0em" dy="0.95em" fill="rgb(50, 49, 63)" stroke="none" stroke-width="1px">100</text><text style="text-anchor: middle; visibility: hidden; font-family: &quot;Helvetica Neue&quot;, sans-serif; font-size: 12px; font-weight: 200;" x="270.01999855041504" y="0" dx="0em" dy="0.95em" fill="rgb(50, 49, 63)" stroke="none" stroke-width="1px">110</text></g><line x1="0" y1="0" x2="270.01999855041504" y2="0" fill="rgb(0, 0, 0)" stroke="rgb(204, 204, 204)" stroke-width="1px"></line></g></g></g></g></svg>