<svg viewBox="0 0 330 200" xmlns="http://www.w3.org/2000/svg"><g><g><g><g><g><line x1="59.98000144958496" y1="178.61999988555908" x2="54.98000144958496" y2="178.61999988555908" style="visibility: inherit;" fill="rgb(0, 0, 0)" stroke="rgb(204, 204, 204)" stroke-width="1px"></line><line x1="59.98000144958496" y1="160.75799989700317" x2="54.98000144958496" y2="160.75799989700317" style="visibility: inherit;" fill="rgb(0, 0, 0)" stroke="rgb(204, 204, 204)" stroke-width="1px"></line><line x1="59.98000144958496" y1="142.89599990844727" x2="54.98000144958496" y2="142.89599990844727" style="visibility: inherit;" fill="rgb(0, 0, 0)" stroke="rgb(204, 204, 204)" stroke-width="1px"></line><line x1="59.98000144958496" y1="125.03399991989136" x2="54.98000144958496" y2="125.03399991989136" style="visibility: inherit;" fill="rgb(0, 0, 0)" stroke="rgb(204, 204, 204)" stroke-width="1px"></line><line x1="59.98000144958496" y1="107.17199993133545" x2="54.98000144958496" y2="107.17199993133545" style="visibility: inherit;" fill="rgb(0, 0, 0)" stroke="rgb(204, 204, 204)" stroke-width="1px"></line><line x1="59.98000144958496" y1="89.30999994277954" x2="54.98000144958496" y2="89.30999994277954" style="visibility: inherit;" fill="rgb(0, 0, 0)" stroke="rgb(204, 204, 204)" stroke-width="1px"></line><line x1="59.98000144958496" y1="71.44799995422363" x2="54.98000144958496" y2="71.44799995422363" style="visibility: inherit;" fill="rgb(0, 0, 0)" stroke="rgb(204, 204, 204)" stroke-width="1px"></line><line x1="59.98000144958496" y1="53.58599996566774" x2="54.98000144958496" y2="53.58599996566774" style="visibility: inherit;" fill="rgb(0, 0, 0)" stroke="rgb(204, 204, 204)" stroke-width="1px"></line><line x1="59.98000144958496" y1="35.723999977111816" x2="54.98000144958496" y2="35.723999977111816" style="visibility: inherit;" fill="rgb(0, 0, 0)" stroke="rgb(204, 204, 204)" stroke-width="1px"></line><line x1="59.98000144958496" y1="17.861999988555908" x2="54.98000144958496" y2="17.861999988555908" style="visibility: inherit;" fill="rgb(0, 0, 0)" stroke="rgb(204, 204, 204)" stroke-width="1px"></line><line x1="59.98000144958496" y1="0" x2="54.98000144958496" y2="0" style="visibility: inherit;" fill="rgb(0, 0, 0)" stroke="rgb(204, 204, 204)" stroke-width="1px"></line></g><g transform="translate(49.98000144958496, 0)"><text style="text-anchor: end; visibility: hidden; font-family: &quot;Helvetica Neue&quot;, sans-serif; font-size: 12px; font-weight: 200;" x="0" y="178.61999988555908" dx="0em" dy="0.3em" fill="rgb(50, 49, 63)" stroke="none" stroke-width="1px">-0.05</text><text style="text-anchor: end; visibility: inherit; font-family: &quot;Helvetica Neue&quot;, sans-serif; font-size: 12px; font-weight: 200;" x="0" y="160.75799989700317" dx="0em" dy="0.3em" fill="rgb(50, 49, 63)" stroke="none" stroke-width="1px">0</text><text style="text-anchor: end; visibility: hidden; font-family: &quot;Helvetica Neue&quot;, sans-serif; font-size: 12px; font-weight: 200;" x="0" y="142.89599990844727" dx="0em" dy="0.3em" fill="rgb(50, 49, 63)" stroke="none" stroke-width="1px">0.05</text><text style="text-anchor: end; visibility: inherit; font-family: &quot;Helvetica Neue&quot;, sans-serif; font-size: 12px; font-weight: 200;" x="0" y="125.03399991989136" dx="0em" dy="0.3em" fill="rgb(50, 49, 63)" stroke="none" stroke-width="1px">0.1</text><text style="text-anchor: end; visibility: hidden; font-family: &quot;Helvetica Neue&quot;, sans-serif; font-size: 12px; font-weight: 200;" x="0" y="107.17199993133545" dx="0em" dy="0.3em" fill="rgb(50, 49, 63)" stroke="none" stroke-width="1px">0.15</text><text style="text-anchor: end; visibility: inherit; font-family: &quot;Helvetica Neue&quot;, sans-serif; font-size: 12px; font-weight: 200;" x="0" y="89.30999994277954" dx="0em" dy="0.3em" fill="rgb(50, 49, 63)" stroke="none" stroke-width="1px">0.2</text><text style="text-anchor: end; visibility: hidden; font-family: &quot;Helvetica Neue&quot;, sans-serif; font-size: 12px; font-weight: 200;" x="0" y="71.44799995422363" dx="0em" dy="0.3em" fill="rgb(50, 49, 63)" stroke="none" stroke-width="1px">0.25</text><text style="text-anchor: end; visibility: inherit; font-family: &quot;Helvetica Neue&quot;, sans-serif; font-size: 12px; font-weight: 200;" x="0" y="53.58599996566774" dx="0em" dy="0.3em" fill="rgb(50, 49, 63)" stroke="none" stroke-width="1px">0.3</text><text style="text-anchor: end; visibility: hidden; font-family: &quot;Helvetica Neue&quot;, sans-serif; font-size: 12px; font-weight: 200;" x="0" y="35.723999977111816" dx="0em" dy="0.3em" fill="rgb(50, 49, 63)" stroke="none" stroke-width="1px">0.35</text><text style="text-anchor: end; visibility: inherit; font-family: &quot;Helvetica Neue&quot;, sans-serif; font-size: 12px; font-weight: 200;" x="0" y="17.861999988555908" dx="0em" dy="0.3em" fill="rgb(50, 49, 63)" stroke="none" stroke-width="1px">0.4</text><text style="text-anchor: end; visibility: hidden; font-family: &quot;Helvetica Neue&quot;, sans-serif; font-size: 12px; font-weight: 200;" x="0" y="0" dx="0em" dy="0.3em" fill="rgb(50, 49, 63)" stroke="none" stroke-width="1px">0.45</text></g><line x1="59.98000144958496" y1="0" x2="59.98000144958496" y2="178.61999988555908" fill="rgb(0, 0, 0)" stroke="rgb(204, 204, 204)" stroke-width="1px"></line></g></g><g transform="translate(59, 0)" clip-path="url(#clip_0)"><clipPath id="clip_0"><rect width="270" height="178"></rect></clipPath><g><g><g><line x1="0" y1="0" x2="0" y2="178.61999988555908" fill="rgb(0, 0, 0)" stroke="rgb(60, 60, 60)" stroke-width="1px" opacity="0.25"></line><line x1="22.50166654586792" y1="0" x2="22.50166654586792" y2="178.61999988555908" fill="rgb(0, 0, 0)" stroke="rgb(60, 60, 60)" stroke-width="1px" opacity="0.25"></line><line x1="45.00333309173584" y1="0" x2="45.00333309173584" y2="178.61999988555908" fill="rgb(0, 0, 0)" stroke="rgb(60, 60, 60)" stroke-width="1px" opacity="0.25"></line><line x1="67.50499963760376" y1="0" x2="67.50499963760376" y2="178.61999988555908" fill="rgb(0, 0, 0)" stroke="rgb(60, 60, 60)" stroke-width="1px" opacity="0.25"></line><line x1="90.00666618347168" y1="0" x2="90.00666618347168" y2="178.61999988555908" fill="rgb(0, 0, 0)" stroke="rgb(60, 60, 60)" stroke-width="1px" opacity="0.25"></line><line x1="112.5083327293396" y1="0" x2="112.5083327293396" y2="178.61999988555908" fill="rgb(0, 0, 0)" stroke="rgb(60, 60, 60)" stroke-width="1px" opacity="0.25"></line><line x1="135.00999927520752" y1="0" x2="135.00999927520752" y2="178.61999988555908" fill="rgb(0, 0, 0)" stroke="rgb(60, 60, 60)" stroke-width="1px" opacity="0.25"></line><line x1="157.51166582107544" y1="0" x2="157.51166582107544" y2="178.61999988555908" fill="rgb(0, 0, 0)" stroke="rgb(60, 60, 60)" stroke-width="1px" opacity="0.25"></line><line x1="180.01333236694336" y1="0" x2="180.01333236694336" y2="178.61999988555908" fill="rgb(0, 0, 0)" stroke="rgb(60, 60, 60)" stroke-width="1px" opacity="0.25"></line><line x1="202.51499891281128" y1="0" x2="202.51499891281128" y2="178.61999988555908" fill="rgb(0, 0, 0)" stroke="rgb(60, 60, 60)" stroke-width="1px" opacity="0.25"></line><line x1="225.0166654586792" y1="0" x2="225.0166654586792" y2="178.61999988555908" fill="rgb(0, 0, 0)" stroke="rgb(60, 60, 60)" stroke-width="1px" opacity="0.25"></line><line x1="247.51833200454712" y1="0" x2="247.51833200454712" y2="178.61999988555908" fill="rgb(0, 0, 0)" stroke="rgb(60, 60, 60)" stroke-width="1px" opacity="0.25"></line><line x1="270.01999855041504" y1="0" x2="270.01999855041504" y2="178.61999988555908" fill="rgb(0, 0, 0)" stroke="rgb(60, 60, 60)" stroke-width="1px" opacity="0.25"></line></g><g><line x1="0" y1="178.61999988555908" x2="270.01999855041504" y2="178.61999988555908" fill="rgb(0, 0, 0)" stroke="rgb(60, 60, 60)" stroke-width="1px" opacity="0.25"></line><line x1="0" y1="160.75799989700317" x2="270.01999855041504" y2="160.75799989700317" fill="rgb(0, 0, 0)" stroke="rgb(60, 60, 60)" stroke-width="1px" opacity="0.25"></line><line x1="0" y1="142.89599990844727" x2="270.01999855041504" y2="142.89599990844727" fill="rgb(0, 0, 0)" stroke="rgb(60, 60, 60)" stroke-width="1px" opacity="0.25"></line><line x1="0" y1="125.03399991989136" x2="270.01999855041504" y2="125.03399991989136" fill="rgb(0, 0, 0)" stroke="rgb(60, 60, 60)" stroke-width="1px" opacity="0.25"></line><line x1="0" y1="107.17199993133545" x2="270.01999855041504" y2="107.17199993133545" fill="rgb(0, 0, 0)" stroke="rgb(60, 60, 60)" stroke-width="1px" opacity="0.25"></line><line x1="0" y1="89.30999994277954" x2="270.01999855041504" y2="89.30999994277954" fill="rgb(0, 0, 0)" stroke="rgb(60, 60, 60)" stroke-width="1px" opacity="0.25"></line><line x1="0" y1="71.44799995422363" x2="270.01999855041504" y2="71.44799995422363" fill="rgb(0, 0, 0)" stroke="rgb(60, 60, 60)" stroke-width="1px" opacity="0.25"></line><line x1="0" y1="53.58599996566774" x2="270.01999855041504" y2="53.58599996566774" fill="rgb(0, 0, 0)" stroke="rgb(60, 60, 60)" stroke-width="1px" opacity="0.25"></line><line x1="0" y1="35.723999977111816" x2="270.01999855041504" y2="35.723999977111816" fill="rgb(0, 0, 0)" stroke="rgb(60, 60, 60)" stroke-width="1px" opacity="0.25"></line><line x1="0" y1="17.861999988555908" x2="270.01999855041504" y2="17.861999988555908" fill="rgb(0, 0, 0)" stroke="rgb(60, 60, 60)" stroke-width="1px" opacity="0.25"></line><line x1="0" y1="0" x2="270.01999855041504" y2="0" fill="rgb(0, 0, 0)" stroke="rgb(60, 60, 60)" stroke-width="1px" opacity="0.25"></line></g></g></g><g><g><line x1="0" y1="160.75799989700317" x2="270.01999855041504" y2="160.75799989700317" fill="rgb(0, 0, 0)" stroke="rgb(153, 153, 153)" stroke-width="1.5px"></line></g></g><g><g><line x1="22.50166654586792" y1="0" x2="22.50166654586792" y2="178.61999988555908" fill="rgb(0, 0, 0)" stroke="rgb(153, 153, 153)" stroke-width="1.5px"></line></g></g><g><g><g><g><g><path style="fill: none;" stroke="rgb(255, 112, 67)" stroke-width="2px" d="M27.001999855041504,-5.976732026873833L29.252166509628296,3.0011989449098735L31.502333164215088,12.303766031808351L33.75249981880188,22.211972785008953L36.00266647338867,31.092664032344942L38.252833127975464,39.39984586729949L40.502999782562256,45.672506236431104L42.75316643714905,49.8803021775704L45.00333309173584,56.24961215107477L47.25349974632263,59.59228301786172L49.503666400909424,64.21742960523314L51.753833055496216,68.39547442166068L54.00399971008301,71.14334875003377L56.2541663646698,71.78549719526565L58.50433301925659,74.30322217763961L60.754499673843384,77.29954881874605L63.004666328430176,80.48038071920843L65.25483298301697,81.58664708732779L67.50499963760376,84.05592330697631L69.75516629219055,85.82489669441694L72.00533294677734,87.65324949464929L74.25549960136414,88.83714974487471L76.50566625595093,88.7180279346164L78.75583291053772,90.97464917369386L81.00599956512451,92.864426257638L83.2561662197113,92.71142751011408L85.5063328742981,93.13561296185897L87.75649952888489,93.57228505574352L90.00666618347168,95.2934429150171L92.25683283805847,96.48468213228033L94.50699949264526,97.42869548995856L96.75716614723206,98.96389984665511L99.00733280181885,99.25925042185304L101.25749945640564,101.92479049756207L103.50766611099243,101.80035416202465L105.75783276557922,101.8440205993306L108.00799942016602,102.27458615057621L110.25816607475281,102.46932067257323L112.5083327293396,103.49356953976203L114.75849938392639,103.29401734724729L117.00866603851318,103.37853857136271L119.25883269309998,104.02506382508815L121.50899934768677,103.5759745388239L123.75916600227356,104.05161346615887L126.00933265686035,107.00471078491694L128.25949931144714,107.38771621279687L130.50966596603394,107.98327426460281L132.75983262062073,108.95005988593937L135.00999927520752,100.38719828091294L137.2601659297943,96.83205735146024L139.5103325843811,96.64511894385596L141.7604992389679,97.19046110045122L144.0106658935547,98.64489877765291L146.26083254814148,97.82761883320417L148.51099920272827,98.47963333545756L150.76116585731506,100.32012499748812L153.01133251190186,103.26716867316374L155.26149916648865,104.43696968826514L157.51166582107544,105.48302021278155L159.76183247566223,105.12635702006918L162.01199913024902,105.37932030461826L164.26216578483582,107.67791332552792L166.5123324394226,107.3194959103509L168.7624990940094,108.92999991034857L171.0126657485962,110.02919507173092L173.26283240318298,109.16347010649204L175.51299905776978,110.04024913716965L177.76316571235657,111.7062886384144L180.01333236694336,112.4722922688535L182.26349902153015,111.27963653673181L184.51366567611694,112.23444491227986L186.76383233070374,112.01304810208472L189.01399898529053,113.4113119565722L191.26416563987732,113.79312947599564L193.5143322944641,113.9662892356466L195.7644989490509,115.56648867994171L198.0146656036377,115.63468777540541L200.2648322582245,116.04339233088149L202.51499891281128,115.08473900433339L204.76516556739807,115.70076215334845L207.01533222198486,116.40214056128272L209.26549887657166,116.82996134552454L211.51566553115845,116.16595872874981L213.76583218574524,116.86488435875233L216.01599884033203,117.23542196594636L218.26616549491882,117.89041628494182L220.51633214950562,118.6503973515974L222.7664988040924,118.83258465750427L225.0166654586792,118.70849309634798L227.266832113266,118.16556833885889L229.51699876785278,118.70776647088417L231.76716542243958,118.26096756823969L234.01733207702637,118.94867551172617L236.26749873161316,118.59717062616511L238.51766538619995,119.54460726031711L240.76783204078674,121.3272905840245L243.01799869537354,121.2357194401198L245.26816534996033,120.54790561322557" fill="none"></path></g></g></g></g><g opacity="0.2"><g><g><g><path style="fill: none;" stroke="rgb(255, 112, 67)" stroke-width="2px" d="M24.751833200454712,-9.084851616284055L27.001999855041504,4.964122001805322L29.252166509628296,13.559245767727532L31.502333164215088,24.449197620462996L33.75249981880188,35.91858967911651L36.00266647338867,43.79219460709538L38.252833127975464,51.511796731608854L40.502999782562256,54.92346187935016L42.75316643714905,56.12838875679205L45.00333309173584,65.74580793865283L47.25349974632263,64.58809865079746L49.503666400909424,71.14004758020104L51.753833055496216,74.65435642156211L54.00399971008301,75.26193021947168L56.2541663646698,72.74826697027822L58.50433301925659,78.07874423436675L60.754499673843384,81.79327801339613L63.004666328430176,85.25114400217706L65.25483298301697,83.24594552237886L67.50499963760376,87.75970221547271L69.75516629219055,88.47829856675506L72.00533294677734,90.39574259736116L74.25549960136414,90.61298609578574L76.50566625595093,88.53934606589578L78.75583291053772,94.35957140885125L81.00599956512451,95.69908704813261L83.2561662197113,92.48192962371735L85.5063328742981,93.77189074874155L87.75649952888489,94.22729295522831L90.00666618347168,97.87517913317276L92.25683283805847,98.27154072115849L94.50699949264526,98.84471541377965L96.75716614723206,101.26670627173641L99.00733280181885,99.70227627195672L101.25749945640564,105.92310054239181L103.50766611099243,101.61369966064373L105.75783276557922,101.90952025488417L108.00799942016602,102.92043447504642L110.25816607475281,102.761422454918L112.5083327293396,105.02994283849151L114.75849938392639,102.99468905871524L117.00866603851318,103.50532040747484L119.25883269309998,104.99485170539631L121.50899934768677,102.90234060954421L123.75916600227356,104.76507185708715L126.00933265686035,111.43435676277778L128.25949931144714,107.96222435459529L130.50966596603394,108.87661134229165L132.75983262062073,110.4002383179247L135.00999927520752,87.54290587347714L137.2601659297943,91.49934595730701L139.5103325843811,96.36471133245041L141.7604992389679,98.00847433534261L144.0106658935547,100.8265552934532L146.26083254814148,96.60169891653186L148.51099920272827,99.45765508883727L150.76116585731506,103.08086249053335L153.01133251190186,107.68773418667652L155.26149916648865,106.1916712109171L157.51166582107544,107.05209599955612L159.76183247566223,104.59136223100063L162.01199913024902,105.75876523144191L164.26216578483582,111.12580285689236L166.5123324394226,106.78186978758535L168.7624990940094,111.34575591034508L171.0126657485962,111.67798781380444L173.26283240318298,107.86488265863372L175.51299905776978,111.35541768318606L177.76316571235657,114.20534789028156L180.01333236694336,113.62129771451211L182.26349902153015,109.49065293854932L184.51366567611694,113.66665747560194L186.76383233070374,111.680952886792L189.01399898529053,115.50870773830343L191.26416563987732,114.36585575513081L193.5143322944641,114.226028875123L195.7644989490509,117.96678784638442L198.0146656036377,115.73698641860094L200.2648322582245,116.65644916409559L202.51499891281128,113.64675901451125L204.76516556739807,116.62479687687107L207.01533222198486,117.45420817318416L209.26549887657166,117.47169252188729L211.51566553115845,115.16995480358776L213.76583218574524,117.91327280375609L216.01599884033203,117.79122837673742L218.26616549491882,118.87290776343502L220.51633214950562,119.79036895158077L222.7664988040924,119.10586561636461L225.0166654586792,118.52235575461353L227.266832113266,117.35118120262524L229.51699876785278,119.52106366892212L231.76716542243958,117.59076921427297L234.01733207702637,119.98023742695591L236.26749873161316,118.06991329782352L238.51766538619995,120.9657622115451L240.76783204078674,124.00131556958559L243.01799869537354,121.09836272426276L245.26816534996033,119.51618487288425" fill="none"></path></g></g></g></g></g></g><g transform="translate(59, 178)" clip-path="url(#clip_1)"><clipPath id="clip_1"><rect width="270" height="21"></rect></clipPath><g><g><line x1="0" y1="0" x2="0" y2="5" style="visibility: inherit;" fill="rgb(0, 0, 0)" stroke="rgb(204, 204, 204)" stroke-width="1px"></line><line x1="22.50166654586792" y1="0" x2="22.50166654586792" y2="5" style="visibility: inherit;" fill="rgb(0, 0, 0)" stroke="rgb(204, 204, 204)" stroke-width="1px"></line><line x1="45.00333309173584" y1="0" x2="45.00333309173584" y2="5" style="visibility: inherit;" fill="rgb(0, 0, 0)" stroke="rgb(204, 204, 204)" stroke-width="1px"></line><line x1="67.50499963760376" y1="0" x2="67.50499963760376" y2="5" style="visibility: inherit;" fill="rgb(0, 0, 0)" stroke="rgb(204, 204, 204)" stroke-width="1px"></line><line x1="90.00666618347168" y1="0" x2="90.00666618347168" y2="5" style="visibility: inherit;" fill="rgb(0, 0, 0)" stroke="rgb(204, 204, 204)" stroke-width="1px"></line><line x1="112.5083327293396" y1="0" x2="112.5083327293396" y2="5" style="visibility: inherit;" fill="rgb(0, 0, 0)" stroke="rgb(204, 204, 204)" stroke-width="1px"></line><line x1="135.00999927520752" y1="0" x2="135.00999927520752" y2="5" style="visibility: inherit;" fill="rgb(0, 0, 0)" stroke="rgb(204, 204, 204)" stroke-width="1px"></line><line x1="157.51166582107544" y1="0" x2="157.51166582107544" y2="5" style="visibility: inherit;" fill="rgb(0, 0, 0)" stroke="rgb(204, 204, 204)" stroke-width="1px"></line><line x1="180.01333236694336" y1="0" x2="180.01333236694336" y2="5" style="visibility: inherit;" fill="rgb(0, 0, 0)" stroke="rgb(204, 204, 204)" stroke-width="1px"></line><line x1="202.51499891281128" y1="0" x2="202.51499891281128" y2="5" style="visibility: inherit;" fill="rgb(0, 0, 0)" stroke="rgb(204, 204, 204)" stroke-width="1px"></line><line x1="225.0166654586792" y1="0" x2="225.0166654586792" y2="5" style="visibility: inherit;" fill="rgb(0, 0, 0)" stroke="rgb(204, 204, 204)" stroke-width="1px"></line><line x1="247.51833200454712" y1="0" x2="247.51833200454712" y2="5" style="visibility: inherit;" fill="rgb(0, 0, 0)" stroke="rgb(204, 204, 204)" stroke-width="1px"></line><line x1="270.01999855041504" y1="0" x2="270.01999855041504" y2="5" style="visibility: inherit;" fill="rgb(0, 0, 0)" stroke="rgb(204, 204, 204)" stroke-width="1px"></line></g><g transform="translate(0, 8)"><text style="text-anchor: middle; visibility: hidden; font-family: &quot;Helvetica Neue&quot;, sans-serif; font-size: 12px; font-weight: 200;" x="0" y="0" dx="0em" dy="0.95em" fill="rgb(50, 49, 63)" stroke="none" stroke-width="1px">-10</text><text style="text-anchor: middle; visibility: inherit; font-family: &quot;Helvetica Neue&quot;, sans-serif; font-size: 12px; font-weight: 200;" x="22.50166654586792" y="0" dx="0em" dy="0.95em" fill="rgb(50, 49, 63)" stroke="none" stroke-width="1px">0</text><text style="text-anchor: middle; visibility: hidden; font-family: &quot;Helvetica Neue&quot;, sans-serif; font-size: 12px; font-weight: 200;" x="45.00333309173584" y="0" dx="0em" dy="0.95em" fill="rgb(50, 49, 63)" stroke="none" stroke-width="1px">10</text><text style="text-anchor: middle; visibility: inherit; font-family: &quot;Helvetica Neue&quot;, sans-serif; font-size: 12px; font-weight: 200;" x="67.50499963760376" y="0" dx="0em" dy="0.95em" fill="rgb(50, 49, 63)" stroke="none" stroke-width="1px">20</text><text style="text-anchor: middle; visibility: hidden; font-family: &quot;Helvetica Neue&quot;, sans-serif; font-size: 12px; font-weight: 200;" x="90.00666618347168" y="0" dx="0em" dy="0.95em" fill="rgb(50, 49, 63)" stroke="none" stroke-width="1px">30</text><text style="text-anchor: middle; visibility: inherit; font-family: &quot;Helvetica Neue&quot;, sans-serif; font-size: 12px; font-weight: 200;" x="112.5083327293396" y="0" dx="0em" dy="0.95em" fill="rgb(50, 49, 63)" stroke="none" stroke-width="1px">40</text><text style="text-anchor: middle; visibility: hidden; font-family: &quot;Helvetica Neue&quot;, sans-serif; font-size: 12px; font-weight: 200;" x="135.00999927520752" y="0" dx="0em" dy="0.95em" fill="rgb(50, 49, 63)" stroke="none" stroke-width="1px">50</text><text style="text-anchor: middle; visibility: inherit; font-family: &quot;Helvetica Neue&quot;, sans-serif; font-size: 12px; font-weight: 200;" x="157.51166582107544" y="0" dx="0em" dy="0.95em" fill="rgb(50, 49, 63)" stroke="none" stroke-width="1px">60</text><text style="text-anchor: middle; visibility: hidden; font-family: &quot;Helvetica Neue&quot;, sans-serif; font-size: 12px; font-weight: 200;" x="180.01333236694336" y="0" dx="0em" dy="0.95em" fill="rgb(50, 49, 63)" stroke="none" stroke-width="1px">70</text><text style="text-anchor: middle; visibility: inherit; font-family: &quot;Helvetica Neue&quot;, sans-serif; font-size: 12px; font-weight: 200;" x="202.51499891281128" y="0" dx="0em" dy="0.95em" fill="rgb(50, 49, 63)" stroke="none" stroke-width="1px">80</text><text style="text-anchor: middle; visibility: hidden; font-family: &quot;Helvetica Neue&quot;, sans-serif; font-size: 12px; font-weight: 200;" x="225.0166654586792" y="0" dx="0em" dy="0.95em" fill="rgb(50, 49, 63)" stroke="none" stroke-width="1px">90</text><text style="text-anchor: middle; visibility: inherit; font-family: &quot;Helvetica Neue&quot;, sans-serif; font-size: 12px; font-weight: 200;" x="247.51833200454712" y="0" dx="0em" dy="0.95em" fill="rgb(50, 49, 63)" stroke="none" stroke-width="1px">100</text><text style="text-anchor: middle; visibility: hidden; font-family: &quot;Helvetica Neue&quot;, sans-serif; font-size: 12px; font-weight: 200;" x="270.01999855041504" y="0" dx="0em" dy="0.95em" fill="rgb(50, 49, 63)" stroke="none" stroke-width="1px">110</text></g><line x1="0" y1="0" x2="270.01999855041504" y2="0" fill="rgb(0, 0, 0)" stroke="rgb(204, 204, 204)" stroke-width="1px"></line></g></g></g></g></svg>