<svg viewBox="0 0 330 200" xmlns="http://www.w3.org/2000/svg"><g><g><g><g><g><line x1="49.98400115966797" y1="178.61999988555908" x2="44.98400115966797" y2="178.61999988555908" style="visibility: inherit;" fill="rgb(0, 0, 0)" stroke="rgb(204, 204, 204)" stroke-width="1px"></line><line x1="49.98400115966797" y1="158.77333323160806" x2="44.98400115966797" y2="158.77333323160806" style="visibility: inherit;" fill="rgb(0, 0, 0)" stroke="rgb(204, 204, 204)" stroke-width="1px"></line><line x1="49.98400115966797" y1="138.92666657765704" x2="44.98400115966797" y2="138.92666657765704" style="visibility: inherit;" fill="rgb(0, 0, 0)" stroke="rgb(204, 204, 204)" stroke-width="1px"></line><line x1="49.98400115966797" y1="119.07999992370605" x2="44.98400115966797" y2="119.07999992370605" style="visibility: inherit;" fill="rgb(0, 0, 0)" stroke="rgb(204, 204, 204)" stroke-width="1px"></line><line x1="49.98400115966797" y1="99.23333326975504" x2="44.98400115966797" y2="99.23333326975504" style="visibility: inherit;" fill="rgb(0, 0, 0)" stroke="rgb(204, 204, 204)" stroke-width="1px"></line><line x1="49.98400115966797" y1="79.38666661580403" x2="44.98400115966797" y2="79.38666661580403" style="visibility: inherit;" fill="rgb(0, 0, 0)" stroke="rgb(204, 204, 204)" stroke-width="1px"></line><line x1="49.98400115966797" y1="59.53999996185303" x2="44.98400115966797" y2="59.53999996185303" style="visibility: inherit;" fill="rgb(0, 0, 0)" stroke="rgb(204, 204, 204)" stroke-width="1px"></line><line x1="49.98400115966797" y1="39.69333330790204" x2="44.98400115966797" y2="39.69333330790204" style="visibility: inherit;" fill="rgb(0, 0, 0)" stroke="rgb(204, 204, 204)" stroke-width="1px"></line><line x1="49.98400115966797" y1="19.84666665395102" x2="44.98400115966797" y2="19.84666665395102" style="visibility: inherit;" fill="rgb(0, 0, 0)" stroke="rgb(204, 204, 204)" stroke-width="1px"></line><line x1="49.98400115966797" y1="0" x2="44.98400115966797" y2="0" style="visibility: inherit;" fill="rgb(0, 0, 0)" stroke="rgb(204, 204, 204)" stroke-width="1px"></line></g><g transform="translate(39.98400115966797, 0)"><text style="text-anchor: end; visibility: hidden; font-family: &quot;Helvetica Neue&quot;, sans-serif; font-size: 12px; font-weight: 200;" x="0" y="178.61999988555908" dx="0em" dy="0.3em" fill="rgb(50, 49, 63)" stroke="none" stroke-width="1px">-0.2</text><text style="text-anchor: end; visibility: inherit; font-family: &quot;Helvetica Neue&quot;, sans-serif; font-size: 12px; font-weight: 200;" x="0" y="158.77333323160806" dx="0em" dy="0.3em" fill="rgb(50, 49, 63)" stroke="none" stroke-width="1px">0</text><text style="text-anchor: end; visibility: hidden; font-family: &quot;Helvetica Neue&quot;, sans-serif; font-size: 12px; font-weight: 200;" x="0" y="138.92666657765704" dx="0em" dy="0.3em" fill="rgb(50, 49, 63)" stroke="none" stroke-width="1px">0.2</text><text style="text-anchor: end; visibility: inherit; font-family: &quot;Helvetica Neue&quot;, sans-serif; font-size: 12px; font-weight: 200;" x="0" y="119.07999992370605" dx="0em" dy="0.3em" fill="rgb(50, 49, 63)" stroke="none" stroke-width="1px">0.4</text><text style="text-anchor: end; visibility: hidden; font-family: &quot;Helvetica Neue&quot;, sans-serif; font-size: 12px; font-weight: 200;" x="0" y="99.23333326975504" dx="0em" dy="0.3em" fill="rgb(50, 49, 63)" stroke="none" stroke-width="1px">0.6</text><text style="text-anchor: end; visibility: inherit; font-family: &quot;Helvetica Neue&quot;, sans-serif; font-size: 12px; font-weight: 200;" x="0" y="79.38666661580403" dx="0em" dy="0.3em" fill="rgb(50, 49, 63)" stroke="none" stroke-width="1px">0.8</text><text style="text-anchor: end; visibility: hidden; font-family: &quot;Helvetica Neue&quot;, sans-serif; font-size: 12px; font-weight: 200;" x="0" y="59.53999996185303" dx="0em" dy="0.3em" fill="rgb(50, 49, 63)" stroke="none" stroke-width="1px">1</text><text style="text-anchor: end; visibility: inherit; font-family: &quot;Helvetica Neue&quot;, sans-serif; font-size: 12px; font-weight: 200;" x="0" y="39.69333330790204" dx="0em" dy="0.3em" fill="rgb(50, 49, 63)" stroke="none" stroke-width="1px">1.2</text><text style="text-anchor: end; visibility: hidden; font-family: &quot;Helvetica Neue&quot;, sans-serif; font-size: 12px; font-weight: 200;" x="0" y="19.84666665395102" dx="0em" dy="0.3em" fill="rgb(50, 49, 63)" stroke="none" stroke-width="1px">1.4</text><text style="text-anchor: end; visibility: hidden; font-family: &quot;Helvetica Neue&quot;, sans-serif; font-size: 12px; font-weight: 200;" x="0" y="0" dx="0em" dy="0.3em" fill="rgb(50, 49, 63)" stroke="none" stroke-width="1px">1.6</text></g><line x1="49.98400115966797" y1="0" x2="49.98400115966797" y2="178.61999988555908" fill="rgb(0, 0, 0)" stroke="rgb(204, 204, 204)" stroke-width="1px"></line></g></g><g transform="translate(49, 0)" clip-path="url(#clip_0)"><clipPath id="clip_0"><rect width="280" height="178"></rect></clipPath><g><g><g><line x1="0" y1="0" x2="0" y2="178.61999988555908" fill="rgb(0, 0, 0)" stroke="rgb(60, 60, 60)" stroke-width="1px" opacity="0.25"></line><line x1="23.334666570027668" y1="0" x2="23.334666570027668" y2="178.61999988555908" fill="rgb(0, 0, 0)" stroke="rgb(60, 60, 60)" stroke-width="1px" opacity="0.25"></line><line x1="46.669333140055336" y1="0" x2="46.669333140055336" y2="178.61999988555908" fill="rgb(0, 0, 0)" stroke="rgb(60, 60, 60)" stroke-width="1px" opacity="0.25"></line><line x1="70.00399971008301" y1="0" x2="70.00399971008301" y2="178.61999988555908" fill="rgb(0, 0, 0)" stroke="rgb(60, 60, 60)" stroke-width="1px" opacity="0.25"></line><line x1="93.33866628011067" y1="0" x2="93.33866628011067" y2="178.61999988555908" fill="rgb(0, 0, 0)" stroke="rgb(60, 60, 60)" stroke-width="1px" opacity="0.25"></line><line x1="116.67333285013835" y1="0" x2="116.67333285013835" y2="178.61999988555908" fill="rgb(0, 0, 0)" stroke="rgb(60, 60, 60)" stroke-width="1px" opacity="0.25"></line><line x1="140.00799942016602" y1="0" x2="140.00799942016602" y2="178.61999988555908" fill="rgb(0, 0, 0)" stroke="rgb(60, 60, 60)" stroke-width="1px" opacity="0.25"></line><line x1="163.3426659901937" y1="0" x2="163.3426659901937" y2="178.61999988555908" fill="rgb(0, 0, 0)" stroke="rgb(60, 60, 60)" stroke-width="1px" opacity="0.25"></line><line x1="186.67733256022134" y1="0" x2="186.67733256022134" y2="178.61999988555908" fill="rgb(0, 0, 0)" stroke="rgb(60, 60, 60)" stroke-width="1px" opacity="0.25"></line><line x1="210.01199913024902" y1="0" x2="210.01199913024902" y2="178.61999988555908" fill="rgb(0, 0, 0)" stroke="rgb(60, 60, 60)" stroke-width="1px" opacity="0.25"></line><line x1="233.3466657002767" y1="0" x2="233.3466657002767" y2="178.61999988555908" fill="rgb(0, 0, 0)" stroke="rgb(60, 60, 60)" stroke-width="1px" opacity="0.25"></line><line x1="256.6813322703043" y1="0" x2="256.6813322703043" y2="178.61999988555908" fill="rgb(0, 0, 0)" stroke="rgb(60, 60, 60)" stroke-width="1px" opacity="0.25"></line><line x1="280.01599884033203" y1="0" x2="280.01599884033203" y2="178.61999988555908" fill="rgb(0, 0, 0)" stroke="rgb(60, 60, 60)" stroke-width="1px" opacity="0.25"></line></g><g><line x1="0" y1="178.61999988555908" x2="280.01599884033203" y2="178.61999988555908" fill="rgb(0, 0, 0)" stroke="rgb(60, 60, 60)" stroke-width="1px" opacity="0.25"></line><line x1="0" y1="158.77333323160806" x2="280.01599884033203" y2="158.77333323160806" fill="rgb(0, 0, 0)" stroke="rgb(60, 60, 60)" stroke-width="1px" opacity="0.25"></line><line x1="0" y1="138.92666657765704" x2="280.01599884033203" y2="138.92666657765704" fill="rgb(0, 0, 0)" stroke="rgb(60, 60, 60)" stroke-width="1px" opacity="0.25"></line><line x1="0" y1="119.07999992370605" x2="280.01599884033203" y2="119.07999992370605" fill="rgb(0, 0, 0)" stroke="rgb(60, 60, 60)" stroke-width="1px" opacity="0.25"></line><line x1="0" y1="99.23333326975504" x2="280.01599884033203" y2="99.23333326975504" fill="rgb(0, 0, 0)" stroke="rgb(60, 60, 60)" stroke-width="1px" opacity="0.25"></line><line x1="0" y1="79.38666661580403" x2="280.01599884033203" y2="79.38666661580403" fill="rgb(0, 0, 0)" stroke="rgb(60, 60, 60)" stroke-width="1px" opacity="0.25"></line><line x1="0" y1="59.53999996185303" x2="280.01599884033203" y2="59.53999996185303" fill="rgb(0, 0, 0)" stroke="rgb(60, 60, 60)" stroke-width="1px" opacity="0.25"></line><line x1="0" y1="39.69333330790204" x2="280.01599884033203" y2="39.69333330790204" fill="rgb(0, 0, 0)" stroke="rgb(60, 60, 60)" stroke-width="1px" opacity="0.25"></line><line x1="0" y1="19.84666665395102" x2="280.01599884033203" y2="19.84666665395102" fill="rgb(0, 0, 0)" stroke="rgb(60, 60, 60)" stroke-width="1px" opacity="0.25"></line><line x1="0" y1="0" x2="280.01599884033203" y2="0" fill="rgb(0, 0, 0)" stroke="rgb(60, 60, 60)" stroke-width="1px" opacity="0.25"></line></g></g></g><g><g><line x1="0" y1="158.77333323160806" x2="280.01599884033203" y2="158.77333323160806" fill="rgb(0, 0, 0)" stroke="rgb(153, 153, 153)" stroke-width="1.5px"></line></g></g><g><g><line x1="23.334666570027668" y1="0" x2="23.334666570027668" y2="178.61999988555908" fill="rgb(0, 0, 0)" stroke="rgb(153, 153, 153)" stroke-width="1.5px"></line></g></g><g><g><g><g><g><path style="fill: none;" stroke="rgb(255, 112, 67)" stroke-width="2px" d="M28.001599884033205,-10.126352437061172L30.33506654103597,2.293227829048277L32.66853319803874,13.270066104511614L35.001999855041504,25.314856874409003L37.33546651204427,31.32386213979416L39.66893316904704,39.604739958875854L42.0023998260498,45.75187641747317L44.33586648305257,48.36850977124459L46.669333140055336,52.49764021511936L49.0027997970581,56.03942862848237L51.33626645406087,59.533894366974096L53.66973311106364,64.52431674487855L56.00319976806641,68.23617279455921L58.336666425069176,71.95263076991645L60.67013308207194,72.44852123613026L63.00359973907471,75.36062772437973L65.33706639607747,77.96403777362762L67.67053305308025,80.3232037910512L70.00399971008301,81.59715675508033L72.33746636708578,84.38989095721601L74.67093302408854,84.72442318141758L77.00439968109131,86.10115597626752L79.33786633809407,87.505177111505L81.67133299509685,88.41876094061878L84.0047996520996,90.65757494054421L86.33826630910238,90.71691646209379L88.67173296610514,92.09272773816679L91.00519962310791,94.0170670409312L93.33866628011067,95.22704677765117L95.67213293711345,95.09915021035764L98.0055995941162,95.51012983894236L100.33906625111898,97.03887363799484L102.67253290812174,95.66774595762477L105.00599956512451,98.45877472934096L107.33946622212729,98.83232527326327L109.67293287913004,99.37894765502092L112.00639953613282,99.94160013359456L114.33986619313558,100.55154064235555L116.67333285013835,100.4137986078087L119.00679950714111,100.217391113381L121.34026616414388,99.47307099594084L123.67373282114664,101.8767155181642L126.00719947814942,100.85308767706918L128.34066613515216,101.22997050089373L130.67413279215495,102.0827627225155L133.0075994491577,103.34608908538495L135.3410661061605,103.7152220574347L137.67453276316323,105.25403177823974L140.00799942016602,91.78485451196237L142.34146607716877,86.30286721023784L144.67493273417156,85.5720791548123L147.00839939117432,90.44718746058453L149.34186604817708,92.37934041048642L151.67533270517984,94.39936571993378L154.00879936218263,97.10635497265011L156.3422660191854,98.9651660609919L158.67573267618815,102.92568304677395L161.0091993331909,103.54675993407216L163.3426659901937,105.81495421895495L165.67613264719645,103.93869956641079L168.0095993041992,106.20504705442644L170.34306596120197,108.18835249094593L172.67653261820476,108.78396903947616L175.00999927520752,110.03102174654168L177.34346593221028,111.56086861323828L179.67693258921307,111.56014116800759L182.01039924621583,113.8676541080806L184.34386590321859,114.41902308928279L186.67733256022134,112.92699709972595L189.01079921722413,113.74095888092867L191.3442658742269,114.91664495486776L193.67773253122965,115.38216545574504L196.0111991882324,117.03963989543996L198.3446658452352,117.56233194033081L200.67813250223796,118.58535256120601L203.01159915924072,119.9465052810192L205.34506581624348,121.08359040905623L207.67853247324626,120.1724646135651L210.01199913024902,120.74696763660174L212.34546578725178,120.64871960412192L214.67893244425457,120.97132889232199L217.01239910125733,121.21311046759597L219.3458657582601,121.20989618954425L221.67933241526285,120.456109575948L224.01279907226564,122.07047987615698L226.3462657292684,124.13499729111874L228.67973238627116,123.61551113736775L231.01319904327391,125.0378506734227L233.3466657002767,122.71383178776222L235.68013235727946,122.16108596815002L238.01359901428222,124.85310196863509L240.34706567128498,124.72476466253877L242.68053232828777,126.49790157772411L245.01399898529053,125.1319995711159L247.3474656422933,125.6876548418552L249.68093229929607,127.5237940759462L252.01439895629883,127.55323790302157L254.3478656133016,127.6567262938907" fill="none"></path></g></g></g></g><g opacity="0.2"><g><g><g><path style="fill: none;" stroke="rgb(255, 112, 67)" stroke-width="2px" d="M28.001599884033205,-2.096716495601072L30.33506654103597,16.898654221992985L32.66853319803874,27.601426156956563L35.001999855041504,41.97713863385428L37.33546651204427,39.91683581337915L39.66893316904704,51.67833931552404L42.0023998260498,54.817708674118535L44.33586648305257,52.25390534867756L46.669333140055336,58.653884971709545L49.0027997970581,61.3328369923867L51.33626645406087,64.76418293777178L53.66973311106364,72.00017355478195L56.00319976806641,73.79959372163152L58.336666425069176,77.52469659884858L60.67013308207194,73.19214709122492L63.00359973907471,79.728048073232L65.33706639607747,81.86875624418178L67.67053305308025,83.86173718006792L70.00399971008301,83.50801633451577L72.33746636708578,88.57890036431107L74.67093302408854,85.22621491296472L77.00439968109131,88.16623885982997L79.33786633809407,89.61119883517995L81.67133299509685,89.7891327882717L84.0047996520996,94.01579021192097L86.33826630910238,90.80592865331492L88.67173296610514,94.15644338495962L91.00519962310791,96.90357493152476L93.33866628011067,97.04201598148872L95.67213293711345,94.90730538486446L98.0055995941162,96.12659923275676L100.33906625111898,99.33198922707278L102.67253290812174,93.6110544959963L105.00599956512451,102.64531781494564L107.33946622212729,99.39265108336731L109.67293287913004,100.19888122258314L112.00639953613282,100.78557884832114L114.33986619313558,101.46645140345868L116.67333285013835,100.20718555626465L119.00679950714111,99.92277987197573L121.34026616414388,98.35659082031792L123.67373282114664,105.48218230045819L126.00719947814942,99.31764591569267L128.34066613515216,101.79529473657179L130.67413279215495,103.36195105486837L133.0075994491577,105.24107862961823L135.3410661061605,104.2689215154969L137.67453276316323,107.56224635941616L140.00799942016602,71.5810886127096L142.34146607716877,78.079886257691L144.67493273417156,84.47589707167718L147.00839939117432,97.75984991923006L149.34186604817708,95.27756983533627L151.67533270517984,97.42940368410294L154.00879936218263,101.16683885172307L156.3422660191854,101.75338269350401L158.67573267618815,108.86645852544622L161.0091993331909,104.47837526501938L163.3426659901937,109.217245646279L165.67613264719645,101.1243175875946L168.0095993041992,109.60456828644985L170.34306596120197,111.16331064572516L172.67653261820476,109.67739386227147L175.00999927520752,111.90160080713994L177.34346593221028,113.85563891328317L179.67693258921307,111.55905000016153L182.01039924621583,117.32892351819014L184.34386590321859,115.24607656108606L186.67733256022134,110.6889581153907L189.01079921722413,114.96190155273274L191.3442658742269,116.68017406577643L193.67773253122965,116.08044620706096L196.0111991882324,119.52585155498232L198.3446658452352,118.3463700076671L200.67813250223796,120.1198834925188L203.01159915924072,121.98823436073894L205.34506581624348,122.7892181011118L207.67853247324626,118.80577592032836L210.01199913024902,121.60872217115673L212.34546578725178,120.50134755540222L214.67893244425457,121.4552428246221L217.01239910125733,121.57578283050692L219.3458657582601,121.20507477246667L221.67933241526285,119.32542965555362L224.01279907226564,124.49203532647047L226.3462657292684,127.23177341356134L228.67973238627116,122.83628190674128L231.01319904327391,127.17135997750513L233.3466657002767,119.22780345927146L235.68013235727946,121.33196723873178L238.01359901428222,128.89112596936263L240.34706567128498,124.53225870339433L242.68053232828777,129.1576069505021L245.01399898529053,123.08314656120359L247.3474656422933,126.52113774796413L249.68093229929607,130.2780029270827L252.01439895629883,127.59740364363466L254.3478656133016,127.8119588801944" fill="none"></path></g></g></g></g></g></g><g transform="translate(49, 178)" clip-path="url(#clip_1)"><clipPath id="clip_1"><rect width="280" height="21"></rect></clipPath><g><g><line x1="0" y1="0" x2="0" y2="5" style="visibility: inherit;" fill="rgb(0, 0, 0)" stroke="rgb(204, 204, 204)" stroke-width="1px"></line><line x1="23.334666570027668" y1="0" x2="23.334666570027668" y2="5" style="visibility: inherit;" fill="rgb(0, 0, 0)" stroke="rgb(204, 204, 204)" stroke-width="1px"></line><line x1="46.669333140055336" y1="0" x2="46.669333140055336" y2="5" style="visibility: inherit;" fill="rgb(0, 0, 0)" stroke="rgb(204, 204, 204)" stroke-width="1px"></line><line x1="70.00399971008301" y1="0" x2="70.00399971008301" y2="5" style="visibility: inherit;" fill="rgb(0, 0, 0)" stroke="rgb(204, 204, 204)" stroke-width="1px"></line><line x1="93.33866628011067" y1="0" x2="93.33866628011067" y2="5" style="visibility: inherit;" fill="rgb(0, 0, 0)" stroke="rgb(204, 204, 204)" stroke-width="1px"></line><line x1="116.67333285013835" y1="0" x2="116.67333285013835" y2="5" style="visibility: inherit;" fill="rgb(0, 0, 0)" stroke="rgb(204, 204, 204)" stroke-width="1px"></line><line x1="140.00799942016602" y1="0" x2="140.00799942016602" y2="5" style="visibility: inherit;" fill="rgb(0, 0, 0)" stroke="rgb(204, 204, 204)" stroke-width="1px"></line><line x1="163.3426659901937" y1="0" x2="163.3426659901937" y2="5" style="visibility: inherit;" fill="rgb(0, 0, 0)" stroke="rgb(204, 204, 204)" stroke-width="1px"></line><line x1="186.67733256022134" y1="0" x2="186.67733256022134" y2="5" style="visibility: inherit;" fill="rgb(0, 0, 0)" stroke="rgb(204, 204, 204)" stroke-width="1px"></line><line x1="210.01199913024902" y1="0" x2="210.01199913024902" y2="5" style="visibility: inherit;" fill="rgb(0, 0, 0)" stroke="rgb(204, 204, 204)" stroke-width="1px"></line><line x1="233.3466657002767" y1="0" x2="233.3466657002767" y2="5" style="visibility: inherit;" fill="rgb(0, 0, 0)" stroke="rgb(204, 204, 204)" stroke-width="1px"></line><line x1="256.6813322703043" y1="0" x2="256.6813322703043" y2="5" style="visibility: inherit;" fill="rgb(0, 0, 0)" stroke="rgb(204, 204, 204)" stroke-width="1px"></line><line x1="280.01599884033203" y1="0" x2="280.01599884033203" y2="5" style="visibility: inherit;" fill="rgb(0, 0, 0)" stroke="rgb(204, 204, 204)" stroke-width="1px"></line></g><g transform="translate(0, 8)"><text style="text-anchor: middle; visibility: hidden; font-family: &quot;Helvetica Neue&quot;, sans-serif; font-size: 12px; font-weight: 200;" x="0" y="0" dx="0em" dy="0.95em" fill="rgb(50, 49, 63)" stroke="none" stroke-width="1px">-10</text><text style="text-anchor: middle; visibility: inherit; font-family: &quot;Helvetica Neue&quot;, sans-serif; font-size: 12px; font-weight: 200;" x="23.334666570027668" y="0" dx="0em" dy="0.95em" fill="rgb(50, 49, 63)" stroke="none" stroke-width="1px">0</text><text style="text-anchor: middle; visibility: hidden; font-family: &quot;Helvetica Neue&quot;, sans-serif; font-size: 12px; font-weight: 200;" x="46.669333140055336" y="0" dx="0em" dy="0.95em" fill="rgb(50, 49, 63)" stroke="none" stroke-width="1px">10</text><text style="text-anchor: middle; visibility: inherit; font-family: &quot;Helvetica Neue&quot;, sans-serif; font-size: 12px; font-weight: 200;" x="70.00399971008301" y="0" dx="0em" dy="0.95em" fill="rgb(50, 49, 63)" stroke="none" stroke-width="1px">20</text><text style="text-anchor: middle; visibility: hidden; font-family: &quot;Helvetica Neue&quot;, sans-serif; font-size: 12px; font-weight: 200;" x="93.33866628011067" y="0" dx="0em" dy="0.95em" fill="rgb(50, 49, 63)" stroke="none" stroke-width="1px">30</text><text style="text-anchor: middle; visibility: inherit; font-family: &quot;Helvetica Neue&quot;, sans-serif; font-size: 12px; font-weight: 200;" x="116.67333285013835" y="0" dx="0em" dy="0.95em" fill="rgb(50, 49, 63)" stroke="none" stroke-width="1px">40</text><text style="text-anchor: middle; visibility: hidden; font-family: &quot;Helvetica Neue&quot;, sans-serif; font-size: 12px; font-weight: 200;" x="140.00799942016602" y="0" dx="0em" dy="0.95em" fill="rgb(50, 49, 63)" stroke="none" stroke-width="1px">50</text><text style="text-anchor: middle; visibility: inherit; font-family: &quot;Helvetica Neue&quot;, sans-serif; font-size: 12px; font-weight: 200;" x="163.3426659901937" y="0" dx="0em" dy="0.95em" fill="rgb(50, 49, 63)" stroke="none" stroke-width="1px">60</text><text style="text-anchor: middle; visibility: hidden; font-family: &quot;Helvetica Neue&quot;, sans-serif; font-size: 12px; font-weight: 200;" x="186.67733256022134" y="0" dx="0em" dy="0.95em" fill="rgb(50, 49, 63)" stroke="none" stroke-width="1px">70</text><text style="text-anchor: middle; visibility: inherit; font-family: &quot;Helvetica Neue&quot;, sans-serif; font-size: 12px; font-weight: 200;" x="210.01199913024902" y="0" dx="0em" dy="0.95em" fill="rgb(50, 49, 63)" stroke="none" stroke-width="1px">80</text><text style="text-anchor: middle; visibility: hidden; font-family: &quot;Helvetica Neue&quot;, sans-serif; font-size: 12px; font-weight: 200;" x="233.3466657002767" y="0" dx="0em" dy="0.95em" fill="rgb(50, 49, 63)" stroke="none" stroke-width="1px">90</text><text style="text-anchor: middle; visibility: inherit; font-family: &quot;Helvetica Neue&quot;, sans-serif; font-size: 12px; font-weight: 200;" x="256.6813322703043" y="0" dx="0em" dy="0.95em" fill="rgb(50, 49, 63)" stroke="none" stroke-width="1px">100</text><text style="text-anchor: middle; visibility: hidden; font-family: &quot;Helvetica Neue&quot;, sans-serif; font-size: 12px; font-weight: 200;" x="280.01599884033203" y="0" dx="0em" dy="0.95em" fill="rgb(50, 49, 63)" stroke="none" stroke-width="1px">110</text></g><line x1="0" y1="0" x2="280.01599884033203" y2="0" fill="rgb(0, 0, 0)" stroke="rgb(204, 204, 204)" stroke-width="1px"></line></g></g></g></g></svg>