<svg viewBox="0 0 330 200" xmlns="http://www.w3.org/2000/svg"><g><g><g><g><g><line x1="59.98000144958496" y1="178.61999988555908" x2="54.98000144958496" y2="178.61999988555908" style="visibility: inherit;" fill="rgb(0, 0, 0)" stroke="rgb(204, 204, 204)" stroke-width="1px"></line><line x1="59.98000144958496" y1="158.77333323160806" x2="54.98000144958496" y2="158.77333323160806" style="visibility: inherit;" fill="rgb(0, 0, 0)" stroke="rgb(204, 204, 204)" stroke-width="1px"></line><line x1="59.98000144958496" y1="138.92666657765704" x2="54.98000144958496" y2="138.92666657765704" style="visibility: inherit;" fill="rgb(0, 0, 0)" stroke="rgb(204, 204, 204)" stroke-width="1px"></line><line x1="59.98000144958496" y1="119.07999992370605" x2="54.98000144958496" y2="119.07999992370605" style="visibility: inherit;" fill="rgb(0, 0, 0)" stroke="rgb(204, 204, 204)" stroke-width="1px"></line><line x1="59.98000144958496" y1="99.23333326975504" x2="54.98000144958496" y2="99.23333326975504" style="visibility: inherit;" fill="rgb(0, 0, 0)" stroke="rgb(204, 204, 204)" stroke-width="1px"></line><line x1="59.98000144958496" y1="79.38666661580403" x2="54.98000144958496" y2="79.38666661580403" style="visibility: inherit;" fill="rgb(0, 0, 0)" stroke="rgb(204, 204, 204)" stroke-width="1px"></line><line x1="59.98000144958496" y1="59.53999996185301" x2="54.98000144958496" y2="59.53999996185301" style="visibility: inherit;" fill="rgb(0, 0, 0)" stroke="rgb(204, 204, 204)" stroke-width="1px"></line><line x1="59.98000144958496" y1="39.69333330790204" x2="54.98000144958496" y2="39.69333330790204" style="visibility: inherit;" fill="rgb(0, 0, 0)" stroke="rgb(204, 204, 204)" stroke-width="1px"></line><line x1="59.98000144958496" y1="19.84666665395099" x2="54.98000144958496" y2="19.84666665395099" style="visibility: inherit;" fill="rgb(0, 0, 0)" stroke="rgb(204, 204, 204)" stroke-width="1px"></line><line x1="59.98000144958496" y1="0" x2="54.98000144958496" y2="0" style="visibility: inherit;" fill="rgb(0, 0, 0)" stroke="rgb(204, 204, 204)" stroke-width="1px"></line></g><g transform="translate(49.98000144958496, 0)"><text style="text-anchor: end; visibility: hidden; font-family: &quot;Helvetica Neue&quot;, sans-serif; font-size: 12px; font-weight: 200;" x="0" y="178.61999988555908" dx="0em" dy="0.3em" fill="rgb(50, 49, 63)" stroke="none" stroke-width="1px">-5e-3</text><text style="text-anchor: end; visibility: inherit; font-family: &quot;Helvetica Neue&quot;, sans-serif; font-size: 12px; font-weight: 200;" x="0" y="158.77333323160806" dx="0em" dy="0.3em" fill="rgb(50, 49, 63)" stroke="none" stroke-width="1px">0</text><text style="text-anchor: end; visibility: hidden; font-family: &quot;Helvetica Neue&quot;, sans-serif; font-size: 12px; font-weight: 200;" x="0" y="138.92666657765704" dx="0em" dy="0.3em" fill="rgb(50, 49, 63)" stroke="none" stroke-width="1px">5e-3</text><text style="text-anchor: end; visibility: inherit; font-family: &quot;Helvetica Neue&quot;, sans-serif; font-size: 12px; font-weight: 200;" x="0" y="119.07999992370605" dx="0em" dy="0.3em" fill="rgb(50, 49, 63)" stroke="none" stroke-width="1px">0.01</text><text style="text-anchor: end; visibility: hidden; font-family: &quot;Helvetica Neue&quot;, sans-serif; font-size: 12px; font-weight: 200;" x="0" y="99.23333326975504" dx="0em" dy="0.3em" fill="rgb(50, 49, 63)" stroke="none" stroke-width="1px">0.015</text><text style="text-anchor: end; visibility: inherit; font-family: &quot;Helvetica Neue&quot;, sans-serif; font-size: 12px; font-weight: 200;" x="0" y="79.38666661580403" dx="0em" dy="0.3em" fill="rgb(50, 49, 63)" stroke="none" stroke-width="1px">0.02</text><text style="text-anchor: end; visibility: hidden; font-family: &quot;Helvetica Neue&quot;, sans-serif; font-size: 12px; font-weight: 200;" x="0" y="59.53999996185301" dx="0em" dy="0.3em" fill="rgb(50, 49, 63)" stroke="none" stroke-width="1px">0.025</text><text style="text-anchor: end; visibility: inherit; font-family: &quot;Helvetica Neue&quot;, sans-serif; font-size: 12px; font-weight: 200;" x="0" y="39.69333330790204" dx="0em" dy="0.3em" fill="rgb(50, 49, 63)" stroke="none" stroke-width="1px">0.03</text><text style="text-anchor: end; visibility: hidden; font-family: &quot;Helvetica Neue&quot;, sans-serif; font-size: 12px; font-weight: 200;" x="0" y="19.84666665395099" dx="0em" dy="0.3em" fill="rgb(50, 49, 63)" stroke="none" stroke-width="1px">0.035</text><text style="text-anchor: end; visibility: hidden; font-family: &quot;Helvetica Neue&quot;, sans-serif; font-size: 12px; font-weight: 200;" x="0" y="0" dx="0em" dy="0.3em" fill="rgb(50, 49, 63)" stroke="none" stroke-width="1px">0.04</text></g><line x1="59.98000144958496" y1="0" x2="59.98000144958496" y2="178.61999988555908" fill="rgb(0, 0, 0)" stroke="rgb(204, 204, 204)" stroke-width="1px"></line></g></g><g transform="translate(59, 0)" clip-path="url(#clip_0)"><clipPath id="clip_0"><rect width="270" height="178"></rect></clipPath><g><g><g><line x1="0" y1="0" x2="0" y2="178.61999988555908" fill="rgb(0, 0, 0)" stroke="rgb(60, 60, 60)" stroke-width="1px" opacity="0.25"></line><line x1="22.50166654586792" y1="0" x2="22.50166654586792" y2="178.61999988555908" fill="rgb(0, 0, 0)" stroke="rgb(60, 60, 60)" stroke-width="1px" opacity="0.25"></line><line x1="45.00333309173584" y1="0" x2="45.00333309173584" y2="178.61999988555908" fill="rgb(0, 0, 0)" stroke="rgb(60, 60, 60)" stroke-width="1px" opacity="0.25"></line><line x1="67.50499963760376" y1="0" x2="67.50499963760376" y2="178.61999988555908" fill="rgb(0, 0, 0)" stroke="rgb(60, 60, 60)" stroke-width="1px" opacity="0.25"></line><line x1="90.00666618347168" y1="0" x2="90.00666618347168" y2="178.61999988555908" fill="rgb(0, 0, 0)" stroke="rgb(60, 60, 60)" stroke-width="1px" opacity="0.25"></line><line x1="112.5083327293396" y1="0" x2="112.5083327293396" y2="178.61999988555908" fill="rgb(0, 0, 0)" stroke="rgb(60, 60, 60)" stroke-width="1px" opacity="0.25"></line><line x1="135.00999927520752" y1="0" x2="135.00999927520752" y2="178.61999988555908" fill="rgb(0, 0, 0)" stroke="rgb(60, 60, 60)" stroke-width="1px" opacity="0.25"></line><line x1="157.51166582107544" y1="0" x2="157.51166582107544" y2="178.61999988555908" fill="rgb(0, 0, 0)" stroke="rgb(60, 60, 60)" stroke-width="1px" opacity="0.25"></line><line x1="180.01333236694336" y1="0" x2="180.01333236694336" y2="178.61999988555908" fill="rgb(0, 0, 0)" stroke="rgb(60, 60, 60)" stroke-width="1px" opacity="0.25"></line><line x1="202.51499891281128" y1="0" x2="202.51499891281128" y2="178.61999988555908" fill="rgb(0, 0, 0)" stroke="rgb(60, 60, 60)" stroke-width="1px" opacity="0.25"></line><line x1="225.0166654586792" y1="0" x2="225.0166654586792" y2="178.61999988555908" fill="rgb(0, 0, 0)" stroke="rgb(60, 60, 60)" stroke-width="1px" opacity="0.25"></line><line x1="247.51833200454712" y1="0" x2="247.51833200454712" y2="178.61999988555908" fill="rgb(0, 0, 0)" stroke="rgb(60, 60, 60)" stroke-width="1px" opacity="0.25"></line><line x1="270.01999855041504" y1="0" x2="270.01999855041504" y2="178.61999988555908" fill="rgb(0, 0, 0)" stroke="rgb(60, 60, 60)" stroke-width="1px" opacity="0.25"></line></g><g><line x1="0" y1="178.61999988555908" x2="270.01999855041504" y2="178.61999988555908" fill="rgb(0, 0, 0)" stroke="rgb(60, 60, 60)" stroke-width="1px" opacity="0.25"></line><line x1="0" y1="158.77333323160806" x2="270.01999855041504" y2="158.77333323160806" fill="rgb(0, 0, 0)" stroke="rgb(60, 60, 60)" stroke-width="1px" opacity="0.25"></line><line x1="0" y1="138.92666657765704" x2="270.01999855041504" y2="138.92666657765704" fill="rgb(0, 0, 0)" stroke="rgb(60, 60, 60)" stroke-width="1px" opacity="0.25"></line><line x1="0" y1="119.07999992370605" x2="270.01999855041504" y2="119.07999992370605" fill="rgb(0, 0, 0)" stroke="rgb(60, 60, 60)" stroke-width="1px" opacity="0.25"></line><line x1="0" y1="99.23333326975504" x2="270.01999855041504" y2="99.23333326975504" fill="rgb(0, 0, 0)" stroke="rgb(60, 60, 60)" stroke-width="1px" opacity="0.25"></line><line x1="0" y1="79.38666661580403" x2="270.01999855041504" y2="79.38666661580403" fill="rgb(0, 0, 0)" stroke="rgb(60, 60, 60)" stroke-width="1px" opacity="0.25"></line><line x1="0" y1="59.53999996185301" x2="270.01999855041504" y2="59.53999996185301" fill="rgb(0, 0, 0)" stroke="rgb(60, 60, 60)" stroke-width="1px" opacity="0.25"></line><line x1="0" y1="39.69333330790204" x2="270.01999855041504" y2="39.69333330790204" fill="rgb(0, 0, 0)" stroke="rgb(60, 60, 60)" stroke-width="1px" opacity="0.25"></line><line x1="0" y1="19.84666665395099" x2="270.01999855041504" y2="19.84666665395099" fill="rgb(0, 0, 0)" stroke="rgb(60, 60, 60)" stroke-width="1px" opacity="0.25"></line><line x1="0" y1="0" x2="270.01999855041504" y2="0" fill="rgb(0, 0, 0)" stroke="rgb(60, 60, 60)" stroke-width="1px" opacity="0.25"></line></g></g></g><g><g><line x1="0" y1="158.77333323160806" x2="270.01999855041504" y2="158.77333323160806" fill="rgb(0, 0, 0)" stroke="rgb(153, 153, 153)" stroke-width="1.5px"></line></g></g><g><g><line x1="22.50166654586792" y1="0" x2="22.50166654586792" y2="178.61999988555908" fill="rgb(0, 0, 0)" stroke="rgb(153, 153, 153)" stroke-width="1.5px"></line></g></g><g><g><g><g><g><path style="fill: none;" stroke="rgb(255, 112, 67)" stroke-width="2px" d="M24.751833200454712,-23.314544495879034L27.001999855041504,3.7763877024102612L29.252166509628296,19.61584975987418L31.502333164215088,27.83256910367976L33.75249981880188,34.82269526986195L36.00266647338867,38.48860985600734L38.252833127975464,42.925834818206L40.502999782562256,46.92805497119298L42.75316643714905,48.7070564991684L45.00333309173584,57.589207632552686L47.25349974632263,58.02120025853252L49.503666400909424,59.67834487181614L51.753833055496216,57.937021299792136L54.00399971008301,63.876780281324926L56.2541663646698,66.73319142315525L58.50433301925659,67.91519159150603L60.754499673843384,70.91591873673323L63.004666328430176,76.18424093568326L65.25483298301697,75.37450420286655L67.50499963760376,78.62944258949459L69.75516629219055,77.87342577829484L72.00533294677734,78.49677074431526L74.25549960136414,81.6856465040266L76.50566625595093,84.84062044615214L78.75583291053772,84.39696911009078L81.00599956512451,85.58522162918689L83.2561662197113,80.86709635341055L85.5063328742981,88.24923676170887L87.75649952888489,88.2569530073938L90.00666618347168,89.7550706377711L92.25683283805847,89.68010114581641L94.50699949264526,87.21773608501496L96.75716614723206,90.79125670201996L99.00733280181885,91.40853087749684L101.25749945640564,91.40388136328556L103.50766611099243,91.31834997060889L105.75783276557922,94.23352663552377L108.00799942016602,91.04847731150649L110.25816607475281,97.29495765973431L112.5083327293396,95.98599609424994L114.75849938392639,94.9414813583169L117.00866603851318,94.39430839674222L119.25883269309998,97.69249353527594L121.50899934768677,100.86843084480257L123.75916600227356,94.52148030573974L126.00933265686035,92.27562190412334L128.25949931144714,94.31781728098501L130.50966596603394,95.28731637318356L132.75983262062073,94.36170237330988L135.00999927520752,88.5084115900334L137.2601659297943,88.15296226205345L139.5103325843811,88.61461496421998L141.7604992389679,93.61249163726684L144.0106658935547,95.56646710577544L146.26083254814148,91.87456823124812L148.51099920272827,97.78669514840117L150.76116585731506,99.96874386900447L153.01133251190186,104.34171180561484L155.26149916648865,107.08526513237224L157.51166582107544,109.39129739641942L159.76183247566223,105.9863209225478L162.01199913024902,106.58107591579241L164.26216578483582,108.71384822830383L166.5123324394226,109.12312399266087L168.7624990940094,109.7910556106621L171.0126657485962,111.36265761072833L173.26283240318298,111.52467726033808L175.51299905776978,111.97618362811127L177.76316571235657,114.78855217576059L180.01333236694336,113.6145388743127L182.26349902153015,113.47582222212365L184.51366567611694,114.31208129702058L186.76383233070374,113.47333451944515L189.01399898529053,116.62796356050112L191.26416563987732,116.42720308563081L193.5143322944641,117.03599476118637L195.7644989490509,117.42281430742776L198.0146656036377,117.07609723069363L200.2648322582245,117.85075386375776L202.51499891281128,119.39732482395888L204.76516556739807,119.13219075948304L207.01533222198486,117.78612589080782L209.26549887657166,118.52002622737325L211.51566553115845,118.59393179084839L213.76583218574524,119.21143237299029L216.01599884033203,119.26413521761688L218.26616549491882,121.35419215700475L220.51633214950562,121.62887980652337L222.7664988040924,122.12547093275893L225.0166654586792,118.98112994963378L227.266832113266,119.59575783766886L229.51699876785278,122.4843527268265L231.76716542243958,122.94749963781905L234.01733207702637,125.05103477005724L236.26749873161316,124.8539701186757L238.51766538619995,125.85552695551807L240.76783204078674,128.07787777286225L243.01799869537354,128.25829674190393L245.26816534996033,125.01998371708135" fill="none"></path></g></g></g></g><g opacity="0.2"><g><g><g><path style="fill: none;" stroke="rgb(255, 112, 67)" stroke-width="2px" d="M22.50166654586792,-80.54070638185317L24.751833200454712,11.021152635705448L27.001999855041504,29.78368261276799L29.252166509628296,38.24305713945165L31.502333164215088,38.56031787895236L33.75249981880188,44.492556203111775L36.00266647338867,43.73092636882859L38.252833127975464,49.39535141045127L40.502999782562256,52.83055230560623L42.75316643714905,51.348666436257915L45.00333309173584,70.83187387557562L47.25349974632263,58.66683831270848L49.503666400909424,62.15865092705798L51.753833055496216,55.328447375909704L54.00399971008301,72.77943678991127L56.2541663646698,71.01579357345774L58.50433301925659,69.6876916611744L60.754499673843384,75.41624757027695L63.004666328430176,84.08592165824696L65.25483298301697,74.15997311678619L67.50499963760376,83.51167166087986L69.75516629219055,76.73942543855043L72.00533294677734,79.43177588648688L74.25549960136414,86.46892236832016L76.50566625595093,89.57305893513593L78.75583291053772,83.73149399796905L81.00599956512451,87.36759736741855L83.2561662197113,73.78991568317969L85.5063328742981,99.32244057416173L87.75649952888489,88.26852737165659L90.00666618347168,92.00224658654496L92.25683283805847,89.56764692280078L94.50699949264526,83.5241887877698L96.75716614723206,96.15153737156349L99.00733280181885,92.3344421141837L101.25749945640564,91.39690709208851L103.50766611099243,91.1900528829172L105.75783276557922,98.60629160583456L108.00799942016602,86.2709033432206L110.25816607475281,106.66467816120107L112.5083327293396,94.02255374864802L114.75849938392639,93.37470925567396L117.00866603851318,93.57354895477518L119.25883269309998,102.63977124164803L121.50899934768677,105.63233680826723L123.75916600227356,85.00105449813508L126.00933265686035,88.90683430190883L128.25949931144714,97.3811103461629L130.50966596603394,96.74156501144871L132.75983262062073,92.97328137351809L135.00999927520752,79.72847541518962L137.2601659297943,87.61978827008615L139.5103325843811,89.30709401746776L141.7604992389679,101.10930664682398L144.0106658935547,98.4974303085353L146.26083254814148,86.3367199194606L148.51099920272827,106.6548855241274L150.76116585731506,103.24181694990868L153.01133251190186,110.90116371052949L155.26149916648865,111.20059512250798L157.51166582107544,112.85034579249002L159.76183247566223,100.8788562117405L162.01199913024902,107.47320840565934L164.26216578483582,111.9130066970709L166.5123324394226,109.7370376391964L168.7624990940094,110.79295303766398L171.0126657485962,113.72006061082766L173.26283240318298,111.76770673475268L175.51299905776978,112.65344317977107L177.76316571235657,119.00710499723455L180.01333236694336,111.85351892214086L182.26349902153015,113.26774724384008L184.51366567611694,115.56646990936599L186.76383233070374,112.21521435308198L189.01399898529053,121.35990712208508L191.26416563987732,116.12606237332535L193.5143322944641,117.9491822745197L195.7644989490509,118.00304362678982L198.0146656036377,116.55602161559247L200.2648322582245,119.01273881335395L202.51499891281128,121.71718126426057L204.76516556739807,118.73448966276928L207.01533222198486,115.76702858779498L209.26549887657166,119.6208767322214L211.51566553115845,118.70479013606109L213.76583218574524,120.13768324620311L216.01599884033203,119.34318948455677L218.26616549491882,124.48927756608656L220.51633214950562,122.04091128080127L222.7664988040924,122.87035762211227L225.0166654586792,114.26461847494606L227.266832113266,120.51769966972148L229.51699876785278,126.81724506056298L231.76716542243958,123.64222000430784L234.01733207702637,128.20633746841452L236.26749873161316,124.55837314160343L238.51766538619995,127.3578622107816L240.76783204078674,131.4114039988785L243.01799869537354,128.52892519546643L245.26816534996033,120.16251417984748" fill="none"></path></g></g></g></g></g></g><g transform="translate(59, 178)" clip-path="url(#clip_1)"><clipPath id="clip_1"><rect width="270" height="21"></rect></clipPath><g><g><line x1="0" y1="0" x2="0" y2="5" style="visibility: inherit;" fill="rgb(0, 0, 0)" stroke="rgb(204, 204, 204)" stroke-width="1px"></line><line x1="22.50166654586792" y1="0" x2="22.50166654586792" y2="5" style="visibility: inherit;" fill="rgb(0, 0, 0)" stroke="rgb(204, 204, 204)" stroke-width="1px"></line><line x1="45.00333309173584" y1="0" x2="45.00333309173584" y2="5" style="visibility: inherit;" fill="rgb(0, 0, 0)" stroke="rgb(204, 204, 204)" stroke-width="1px"></line><line x1="67.50499963760376" y1="0" x2="67.50499963760376" y2="5" style="visibility: inherit;" fill="rgb(0, 0, 0)" stroke="rgb(204, 204, 204)" stroke-width="1px"></line><line x1="90.00666618347168" y1="0" x2="90.00666618347168" y2="5" style="visibility: inherit;" fill="rgb(0, 0, 0)" stroke="rgb(204, 204, 204)" stroke-width="1px"></line><line x1="112.5083327293396" y1="0" x2="112.5083327293396" y2="5" style="visibility: inherit;" fill="rgb(0, 0, 0)" stroke="rgb(204, 204, 204)" stroke-width="1px"></line><line x1="135.00999927520752" y1="0" x2="135.00999927520752" y2="5" style="visibility: inherit;" fill="rgb(0, 0, 0)" stroke="rgb(204, 204, 204)" stroke-width="1px"></line><line x1="157.51166582107544" y1="0" x2="157.51166582107544" y2="5" style="visibility: inherit;" fill="rgb(0, 0, 0)" stroke="rgb(204, 204, 204)" stroke-width="1px"></line><line x1="180.01333236694336" y1="0" x2="180.01333236694336" y2="5" style="visibility: inherit;" fill="rgb(0, 0, 0)" stroke="rgb(204, 204, 204)" stroke-width="1px"></line><line x1="202.51499891281128" y1="0" x2="202.51499891281128" y2="5" style="visibility: inherit;" fill="rgb(0, 0, 0)" stroke="rgb(204, 204, 204)" stroke-width="1px"></line><line x1="225.0166654586792" y1="0" x2="225.0166654586792" y2="5" style="visibility: inherit;" fill="rgb(0, 0, 0)" stroke="rgb(204, 204, 204)" stroke-width="1px"></line><line x1="247.51833200454712" y1="0" x2="247.51833200454712" y2="5" style="visibility: inherit;" fill="rgb(0, 0, 0)" stroke="rgb(204, 204, 204)" stroke-width="1px"></line><line x1="270.01999855041504" y1="0" x2="270.01999855041504" y2="5" style="visibility: inherit;" fill="rgb(0, 0, 0)" stroke="rgb(204, 204, 204)" stroke-width="1px"></line></g><g transform="translate(0, 8)"><text style="text-anchor: middle; visibility: hidden; font-family: &quot;Helvetica Neue&quot;, sans-serif; font-size: 12px; font-weight: 200;" x="0" y="0" dx="0em" dy="0.95em" fill="rgb(50, 49, 63)" stroke="none" stroke-width="1px">-10</text><text style="text-anchor: middle; visibility: inherit; font-family: &quot;Helvetica Neue&quot;, sans-serif; font-size: 12px; font-weight: 200;" x="22.50166654586792" y="0" dx="0em" dy="0.95em" fill="rgb(50, 49, 63)" stroke="none" stroke-width="1px">0</text><text style="text-anchor: middle; visibility: hidden; font-family: &quot;Helvetica Neue&quot;, sans-serif; font-size: 12px; font-weight: 200;" x="45.00333309173584" y="0" dx="0em" dy="0.95em" fill="rgb(50, 49, 63)" stroke="none" stroke-width="1px">10</text><text style="text-anchor: middle; visibility: inherit; font-family: &quot;Helvetica Neue&quot;, sans-serif; font-size: 12px; font-weight: 200;" x="67.50499963760376" y="0" dx="0em" dy="0.95em" fill="rgb(50, 49, 63)" stroke="none" stroke-width="1px">20</text><text style="text-anchor: middle; visibility: hidden; font-family: &quot;Helvetica Neue&quot;, sans-serif; font-size: 12px; font-weight: 200;" x="90.00666618347168" y="0" dx="0em" dy="0.95em" fill="rgb(50, 49, 63)" stroke="none" stroke-width="1px">30</text><text style="text-anchor: middle; visibility: inherit; font-family: &quot;Helvetica Neue&quot;, sans-serif; font-size: 12px; font-weight: 200;" x="112.5083327293396" y="0" dx="0em" dy="0.95em" fill="rgb(50, 49, 63)" stroke="none" stroke-width="1px">40</text><text style="text-anchor: middle; visibility: hidden; font-family: &quot;Helvetica Neue&quot;, sans-serif; font-size: 12px; font-weight: 200;" x="135.00999927520752" y="0" dx="0em" dy="0.95em" fill="rgb(50, 49, 63)" stroke="none" stroke-width="1px">50</text><text style="text-anchor: middle; visibility: inherit; font-family: &quot;Helvetica Neue&quot;, sans-serif; font-size: 12px; font-weight: 200;" x="157.51166582107544" y="0" dx="0em" dy="0.95em" fill="rgb(50, 49, 63)" stroke="none" stroke-width="1px">60</text><text style="text-anchor: middle; visibility: hidden; font-family: &quot;Helvetica Neue&quot;, sans-serif; font-size: 12px; font-weight: 200;" x="180.01333236694336" y="0" dx="0em" dy="0.95em" fill="rgb(50, 49, 63)" stroke="none" stroke-width="1px">70</text><text style="text-anchor: middle; visibility: inherit; font-family: &quot;Helvetica Neue&quot;, sans-serif; font-size: 12px; font-weight: 200;" x="202.51499891281128" y="0" dx="0em" dy="0.95em" fill="rgb(50, 49, 63)" stroke="none" stroke-width="1px">80</text><text style="text-anchor: middle; visibility: hidden; font-family: &quot;Helvetica Neue&quot;, sans-serif; font-size: 12px; font-weight: 200;" x="225.0166654586792" y="0" dx="0em" dy="0.95em" fill="rgb(50, 49, 63)" stroke="none" stroke-width="1px">90</text><text style="text-anchor: middle; visibility: inherit; font-family: &quot;Helvetica Neue&quot;, sans-serif; font-size: 12px; font-weight: 200;" x="247.51833200454712" y="0" dx="0em" dy="0.95em" fill="rgb(50, 49, 63)" stroke="none" stroke-width="1px">100</text><text style="text-anchor: middle; visibility: hidden; font-family: &quot;Helvetica Neue&quot;, sans-serif; font-size: 12px; font-weight: 200;" x="270.01999855041504" y="0" dx="0em" dy="0.95em" fill="rgb(50, 49, 63)" stroke="none" stroke-width="1px">110</text></g><line x1="0" y1="0" x2="270.01999855041504" y2="0" fill="rgb(0, 0, 0)" stroke="rgb(204, 204, 204)" stroke-width="1px"></line></g></g></g></g></svg>